<?xml version="1.0" encoding="UTF-8"?>
<svg xmlns="http://www.w3.org/2000/svg" xmlns:xlink="http://www.w3.org/1999/xlink" width="86" height="86" viewBox="0 0 86 86">
<path fill="none" stroke-width="0.4" stroke-linecap="butt" stroke-linejoin="round" stroke="rgb(0%, 0%, 0%)" stroke-opacity="1" stroke-miterlimit="10" d="M 408 520 L 432 488 " transform="matrix(1, 0, 0, -1, -373, 571)"/>
<path fill="none" stroke-width="0.4" stroke-linecap="butt" stroke-linejoin="round" stroke="rgb(0%, 0%, 0%)" stroke-opacity="1" stroke-miterlimit="10" d="M 408 520 L 376 496 " transform="matrix(1, 0, 0, -1, -373, 571)"/>
<path fill="none" stroke-width="0.4" stroke-linecap="butt" stroke-linejoin="round" stroke="rgb(0%, 0%, 0%)" stroke-opacity="1" stroke-miterlimit="10" d="M 408 520 L 384 552 " transform="matrix(1, 0, 0, -1, -373, 571)"/>
<path fill="none" stroke-width="0.4" stroke-linecap="butt" stroke-linejoin="round" stroke="rgb(0%, 0%, 0%)" stroke-opacity="1" stroke-miterlimit="10" d="M 384 552 L 376 496 " transform="matrix(1, 0, 0, -1, -373, 571)"/>
<path fill="none" stroke-width="0.4" stroke-linecap="butt" stroke-linejoin="round" stroke="rgb(0%, 0%, 0%)" stroke-opacity="1" stroke-miterlimit="10" d="M 376 496 L 432 488 " transform="matrix(1, 0, 0, -1, -373, 571)"/>
<path fill="none" stroke-width="0.4" stroke-linecap="butt" stroke-linejoin="round" stroke="rgb(0%, 0%, 0%)" stroke-opacity="1" stroke-miterlimit="10" d="M 432 488 L 456 544 " transform="matrix(1, 0, 0, -1, -373, 571)"/>
<path fill="none" stroke-width="0.4" stroke-linecap="butt" stroke-linejoin="round" stroke="rgb(0%, 0%, 0%)" stroke-opacity="1" stroke-miterlimit="10" d="M 456 544 L 416 568 " transform="matrix(1, 0, 0, -1, -373, 571)"/>
<path fill="none" stroke-width="0.4" stroke-linecap="butt" stroke-linejoin="round" stroke="rgb(0%, 0%, 0%)" stroke-opacity="1" stroke-miterlimit="10" d="M 416 568 L 384 552 " transform="matrix(1, 0, 0, -1, -373, 571)"/>
<path fill="none" stroke-width="0.4" stroke-linecap="butt" stroke-linejoin="round" stroke="rgb(0%, 0%, 0%)" stroke-opacity="1" stroke-miterlimit="10" d="M 384 552 L 416 536 " transform="matrix(1, 0, 0, -1, -373, 571)"/>
<path fill="none" stroke-width="0.4" stroke-linecap="butt" stroke-linejoin="round" stroke="rgb(0%, 0%, 0%)" stroke-opacity="1" stroke-miterlimit="10" d="M 416 536 L 416 568 " transform="matrix(1, 0, 0, -1, -373, 571)"/>
<path fill="none" stroke-width="0.4" stroke-linecap="butt" stroke-linejoin="round" stroke="rgb(0%, 0%, 0%)" stroke-opacity="1" stroke-miterlimit="10" d="M 416 536 L 456 544 " transform="matrix(1, 0, 0, -1, -373, 571)"/>
<path fill="none" stroke-width="0.8" stroke-linecap="butt" stroke-linejoin="round" stroke="rgb(94.9%, 58%, 0%)" stroke-opacity="1" stroke-miterlimit="10" d="M 396.667969 530.332031 C 398.332031 537 401.667969 542 406.667969 545.332031 C 411.667969 548.667969 418.332031 550.332031 422.5 547 C 426.667969 543.667969 428.332031 535.332031 427.5 528.667969 C 426.667969 522 423.332031 517 417.5 513.667969 C 411.667969 510.332031 403.332031 508.667969 399.167969 512 C 395 515.332031 395 523.667969 396.667969 530.332031 Z M 396.667969 530.332031 " transform="matrix(1, 0, 0, -1, -373, 571)"/>
<path fill-rule="evenodd" fill="rgb(0%, 0%, 0%)" fill-opacity="1" d="M 36.800781 51 C 36.800781 48.601562 33.199219 48.601562 33.199219 51 C 33.199219 53.398438 36.800781 53.398438 36.800781 51 Z M 36.800781 51 "/>
<path fill-rule="evenodd" fill="rgb(0%, 0%, 0%)" fill-opacity="1" d="M 44.800781 35 C 44.800781 32.601562 41.199219 32.601562 41.199219 35 C 41.199219 37.398438 44.800781 37.398438 44.800781 35 Z M 44.800781 35 "/>
<path fill-rule="evenodd" fill="rgb(0%, 0%, 0%)" fill-opacity="1" d="M 12.800781 19 C 12.800781 16.601562 9.199219 16.601562 9.199219 19 C 9.199219 21.398438 12.800781 21.398438 12.800781 19 Z M 12.800781 19 "/>
<path fill-rule="evenodd" fill="rgb(0%, 0%, 0%)" fill-opacity="1" d="M 4.800781 75 C 4.800781 72.601562 1.199219 72.601562 1.199219 75 C 1.199219 77.398438 4.800781 77.398438 4.800781 75 Z M 4.800781 75 "/>
<path fill-rule="evenodd" fill="rgb(0%, 0%, 0%)" fill-opacity="1" d="M 60.800781 83 C 60.800781 80.601562 57.199219 80.601562 57.199219 83 C 57.199219 85.398438 60.800781 85.398438 60.800781 83 Z M 60.800781 83 "/>
<path fill-rule="evenodd" fill="rgb(0%, 0%, 0%)" fill-opacity="1" d="M 84.800781 27 C 84.800781 24.601562 81.199219 24.601562 81.199219 27 C 81.199219 29.398438 84.800781 29.398438 84.800781 27 Z M 84.800781 27 "/>
<path fill-rule="evenodd" fill="rgb(0%, 0%, 0%)" fill-opacity="1" d="M 44.800781 3 C 44.800781 0.601562 41.199219 0.601562 41.199219 3 C 41.199219 5.398438 44.800781 5.398438 44.800781 3 Z M 44.800781 3 "/>
</svg>
