<?xml version="1.0" encoding="UTF-8"?>
<svg xmlns="http://www.w3.org/2000/svg" xmlns:xlink="http://www.w3.org/1999/xlink" width="134pt" height="134pt" viewBox="0 0 134 134" version="1.1">
<g id="surface1162">
<path style="fill:none;stroke-width:0.8;stroke-linecap:butt;stroke-linejoin:round;stroke:rgb(60%,62.4%,62%);stroke-opacity:1;stroke-miterlimit:10;" d="M 384 704 C 384 739.347656 355.347656 768 320 768 C 284.652344 768 256 739.347656 256 704 C 256 668.652344 284.652344 640 320 640 C 355.347656 640 384 668.652344 384 704 Z M 384 704 " transform="matrix(1,0,0,-1,-253,771)"/>
<path style="fill:none;stroke-width:0.8;stroke-linecap:butt;stroke-linejoin:round;stroke:rgb(100%,100%,100%);stroke-opacity:1;stroke-miterlimit:10;" d="M 384 704 L 365.253906 749.253906 L 320 768 L 274.746094 749.253906 L 256 704 L 274.746094 658.746094 L 320 640 L 365.253906 658.746094 Z M 384 704 " transform="matrix(1,0,0,-1,-253,771)"/>
<path style=" stroke:none;fill-rule:evenodd;fill:rgb(0%,0%,0%);fill-opacity:1;" d="M 23.546875 21.746094 C 23.546875 19.34375 19.945312 19.34375 19.945312 21.746094 C 19.945312 24.144531 23.546875 24.144531 23.546875 21.746094 Z M 23.546875 21.746094 "/>
<path style=" stroke:none;fill-rule:evenodd;fill:rgb(0%,0%,0%);fill-opacity:1;" d="M 4.800781 67 C 4.800781 64.601562 1.199219 64.601562 1.199219 67 C 1.199219 69.398438 4.800781 69.398438 4.800781 67 Z M 4.800781 67 "/>
<path style=" stroke:none;fill-rule:evenodd;fill:rgb(0%,0%,0%);fill-opacity:1;" d="M 68.800781 3 C 68.800781 0.601562 65.199219 0.601562 65.199219 3 C 65.199219 5.398438 68.800781 5.398438 68.800781 3 Z M 68.800781 3 "/>
<path style=" stroke:none;fill-rule:evenodd;fill:rgb(0%,0%,0%);fill-opacity:1;" d="M 114.054688 21.746094 C 114.054688 19.34375 110.453125 19.34375 110.453125 21.746094 C 110.453125 24.144531 114.054688 24.144531 114.054688 21.746094 Z M 114.054688 21.746094 "/>
<path style=" stroke:none;fill-rule:evenodd;fill:rgb(0%,0%,0%);fill-opacity:1;" d="M 132.800781 67 C 132.800781 64.601562 129.199219 64.601562 129.199219 67 C 129.199219 69.398438 132.800781 69.398438 132.800781 67 Z M 132.800781 67 "/>
<path style=" stroke:none;fill-rule:evenodd;fill:rgb(0%,0%,0%);fill-opacity:1;" d="M 114.054688 112.253906 C 114.054688 109.855469 110.453125 109.855469 110.453125 112.253906 C 110.453125 114.65625 114.054688 114.65625 114.054688 112.253906 Z M 114.054688 112.253906 "/>
<path style=" stroke:none;fill-rule:evenodd;fill:rgb(0%,0%,0%);fill-opacity:1;" d="M 68.800781 131 C 68.800781 128.601562 65.199219 128.601562 65.199219 131 C 65.199219 133.398438 68.800781 133.398438 68.800781 131 Z M 68.800781 131 "/>
<path style=" stroke:none;fill-rule:evenodd;fill:rgb(0%,0%,0%);fill-opacity:1;" d="M 23.546875 112.253906 C 23.546875 109.855469 19.945312 109.855469 19.945312 112.253906 C 19.945312 114.65625 23.546875 114.65625 23.546875 112.253906 Z M 23.546875 112.253906 "/>
<path style="fill:none;stroke-width:0.8;stroke-linecap:butt;stroke-linejoin:round;stroke:rgb(0%,0%,0%);stroke-opacity:1;stroke-miterlimit:10;" d="M 274.746094 749.253906 L 320 640 " transform="matrix(1,0,0,-1,-253,771)"/>
<path style="fill:none;stroke-width:0.8;stroke-linecap:butt;stroke-linejoin:round;stroke:rgb(0%,0%,0%);stroke-opacity:1;stroke-miterlimit:10;" d="M 274.746094 749.253906 C 294.25 751.085938 309.332031 757.332031 320 768 " transform="matrix(1,0,0,-1,-253,771)"/>
<path style="fill:none;stroke-width:0.8;stroke-linecap:butt;stroke-linejoin:round;stroke:rgb(0%,0%,0%);stroke-opacity:1;stroke-miterlimit:10;" d="M 256 704 C 266.667969 693.332031 272.914062 678.25 274.746094 658.746094 " transform="matrix(1,0,0,-1,-253,771)"/>
<path style="fill:none;stroke-width:0.8;stroke-linecap:butt;stroke-linejoin:round;stroke:rgb(0%,0%,0%);stroke-opacity:1;stroke-miterlimit:10;" d="M 274.746094 749.253906 C 278.25 719.085938 278.25 688.914062 274.746094 658.746094 " transform="matrix(1,0,0,-1,-253,771)"/>
<path style="fill:none;stroke-width:0.8;stroke-linecap:butt;stroke-linejoin:round;stroke:rgb(0%,0%,0%);stroke-opacity:1;stroke-miterlimit:10;" d="M 320 640 C 336 650.667969 351.085938 656.914062 365.253906 658.746094 " transform="matrix(1,0,0,-1,-253,771)"/>
<path style="fill:none;stroke-width:0.8;stroke-linecap:butt;stroke-linejoin:round;stroke:rgb(0%,0%,0%);stroke-opacity:1;stroke-miterlimit:10;" d="M 365.253906 658.746094 C 367.085938 678.25 373.332031 693.332031 384 704 " transform="matrix(1,0,0,-1,-253,771)"/>
<path style="fill:none;stroke-width:0.8;stroke-linecap:butt;stroke-linejoin:round;stroke:rgb(0%,0%,0%);stroke-opacity:1;stroke-miterlimit:10;" d="M 384 704 C 373.332031 714.667969 367.085938 729.75 365.253906 749.253906 " transform="matrix(1,0,0,-1,-253,771)"/>
<path style="fill:none;stroke-width:0.8;stroke-linecap:butt;stroke-linejoin:round;stroke:rgb(0%,0%,0%);stroke-opacity:1;stroke-miterlimit:10;" d="M 320 768 L 320 640 " transform="matrix(1,0,0,-1,-253,771)"/>
<path style="fill:none;stroke-width:0.8;stroke-linecap:butt;stroke-linejoin:round;stroke:rgb(0%,0%,0%);stroke-opacity:1;stroke-miterlimit:10;" d="M 365.253906 658.746094 C 345.75 678.25 330.667969 714.667969 320 768 " transform="matrix(1,0,0,-1,-253,771)"/>
<path style="fill:none;stroke-width:0.8;stroke-linecap:butt;stroke-linejoin:round;stroke:rgb(0%,0%,0%);stroke-opacity:1;stroke-miterlimit:10;" d="M 384 704 C 362.667969 709.332031 341.332031 730.667969 320 768 " transform="matrix(1,0,0,-1,-253,771)"/>
</g>
</svg>
