<?xml version="1.0" encoding="UTF-8"?>
<svg xmlns="http://www.w3.org/2000/svg" xmlns:xlink="http://www.w3.org/1999/xlink" width="130" height="98" viewBox="0 0 130 98">
<path fill="none" stroke-width="0.4" stroke-linecap="butt" stroke-linejoin="round" stroke="rgb(0%, 0%, 0%)" stroke-opacity="1" stroke-miterlimit="10" d="M 233.015625 737.703125 C 183.296875 714.554688 183.296875 668.257812 233.015625 645.109375 " transform="matrix(1, 0, 0, -1, -195, 741)"/>
<path fill="none" stroke-width="0.4" stroke-linecap="butt" stroke-linejoin="round" stroke="rgb(0%, 0%, 0%)" stroke-opacity="1" stroke-miterlimit="10" d="M 244.535156 691.621094 L 256.054688 691.621094 " transform="matrix(1, 0, 0, -1, -195, 741)"/>
<path fill="none" stroke-width="0.4" stroke-linecap="butt" stroke-linejoin="round" stroke="rgb(0%, 0%, 0%)" stroke-opacity="1" stroke-miterlimit="10" d="M 233.015625 737.703125 C 248.375 722.34375 256.054688 706.984375 256.054688 691.621094 " transform="matrix(1, 0, 0, -1, -195, 741)"/>
<path fill="none" stroke-width="0.4" stroke-linecap="butt" stroke-linejoin="round" stroke="rgb(0%, 0%, 0%)" stroke-opacity="1" stroke-miterlimit="10" d="M 233.015625 737.703125 C 240.695312 722.34375 244.535156 706.984375 244.535156 691.621094 " transform="matrix(1, 0, 0, -1, -195, 741)"/>
<path fill="none" stroke-width="0.4" stroke-linecap="butt" stroke-linejoin="round" stroke="rgb(0%, 0%, 0%)" stroke-opacity="1" stroke-miterlimit="10" d="M 233.015625 737.703125 C 236.855469 722.34375 236.855469 706.984375 233.015625 691.621094 " transform="matrix(1, 0, 0, -1, -195, 741)"/>
<path fill="none" stroke-width="0.4" stroke-linecap="butt" stroke-linejoin="round" stroke="rgb(0%, 0%, 0%)" stroke-opacity="1" stroke-miterlimit="10" d="M 233.015625 737.703125 C 229.175781 722.34375 229.175781 706.984375 233.015625 691.621094 " transform="matrix(1, 0, 0, -1, -195, 741)"/>
<path fill="none" stroke-width="0.4" stroke-linecap="butt" stroke-linejoin="round" stroke="rgb(0%, 0%, 0%)" stroke-opacity="1" stroke-miterlimit="10" d="M 244.535156 691.621094 C 244.535156 676.261719 240.695312 660.902344 233.015625 645.542969 " transform="matrix(1, 0, 0, -1, -195, 741)"/>
<path fill="none" stroke-width="0.4" stroke-linecap="butt" stroke-linejoin="round" stroke="rgb(0%, 0%, 0%)" stroke-opacity="1" stroke-miterlimit="10" d="M 256.054688 691.621094 C 256.054688 676.261719 248.375 660.902344 233.015625 645.542969 " transform="matrix(1, 0, 0, -1, -195, 741)"/>
<path fill="none" stroke-width="0.4" stroke-linecap="butt" stroke-linejoin="round" stroke="rgb(0%, 0%, 0%)" stroke-opacity="1" stroke-miterlimit="10" d="M 233.015625 691.621094 L 233.015625 645.542969 " transform="matrix(1, 0, 0, -1, -195, 741)"/>
<path fill="none" stroke-width="0.4" stroke-linecap="butt" stroke-linejoin="round" stroke="rgb(0%, 0%, 0%)" stroke-opacity="1" stroke-miterlimit="10" d="M 233.015625 737.703125 C 221.496094 703.144531 224.375 680.101562 233.015625 645.542969 " transform="matrix(1, 0, 0, -1, -195, 741)"/>
<path fill="none" stroke-width="0.4" stroke-linecap="butt" stroke-linejoin="round" stroke="rgb(0%, 0%, 0%)" stroke-opacity="1" stroke-miterlimit="10" d="M 233.015625 737.703125 C 209.976562 703.144531 212.855469 680.101562 233.015625 645.542969 " transform="matrix(1, 0, 0, -1, -195, 741)"/>
<path fill="none" stroke-width="0.4" stroke-linecap="butt" stroke-linejoin="round" stroke="rgb(0%, 0%, 0%)" stroke-opacity="1" stroke-miterlimit="10" d="M 233.015625 737.703125 C 201.335938 708.902344 204.214844 674.34375 233.015625 645.542969 " transform="matrix(1, 0, 0, -1, -195, 741)"/>
<path fill="none" stroke-width="0.4" stroke-linecap="butt" stroke-linejoin="round" stroke="rgb(0%, 0%, 0%)" stroke-opacity="1" stroke-miterlimit="10" d="M 233.015625 737.703125 C 192.695312 714.664062 192.695312 668.582031 233.015625 645.542969 " transform="matrix(1, 0, 0, -1, -195, 741)"/>
<path fill="none" stroke-width="0.4" stroke-linecap="butt" stroke-linejoin="round" stroke="rgb(94.9%, 58%, 0%)" stroke-opacity="1" stroke-miterlimit="10" d="M 297.015625 645.703125 L 311.414062 663.703125 " transform="matrix(1, 0, 0, -1, -195, 741)"/>
<path fill="none" stroke-width="0.4" stroke-linecap="butt" stroke-linejoin="round" stroke="rgb(94.9%, 58%, 0%)" stroke-opacity="1" stroke-miterlimit="10" d="M 297.015625 645.703125 L 286.214844 663.703125 " transform="matrix(1, 0, 0, -1, -195, 741)"/>
<path fill="none" stroke-width="0.4" stroke-linecap="butt" stroke-linejoin="round" stroke="rgb(94.9%, 58%, 0%)" stroke-opacity="1" stroke-miterlimit="10" d="M 311.414062 663.703125 L 322.214844 681.703125 " transform="matrix(1, 0, 0, -1, -195, 741)"/>
<path fill="none" stroke-width="0.4" stroke-linecap="butt" stroke-linejoin="round" stroke="rgb(94.9%, 58%, 0%)" stroke-opacity="1" stroke-miterlimit="10" d="M 311.414062 663.703125 L 311.414062 681.703125 " transform="matrix(1, 0, 0, -1, -195, 741)"/>
<path fill="none" stroke-width="0.4" stroke-linecap="butt" stroke-linejoin="round" stroke="rgb(94.9%, 58%, 0%)" stroke-opacity="1" stroke-miterlimit="10" d="M 311.414062 663.703125 L 300.617188 681.703125 " transform="matrix(1, 0, 0, -1, -195, 741)"/>
<path fill="none" stroke-width="0.4" stroke-linecap="butt" stroke-linejoin="round" stroke="rgb(94.9%, 58%, 0%)" stroke-opacity="1" stroke-miterlimit="10" d="M 286.214844 663.703125 L 286.214844 681.703125 " transform="matrix(1, 0, 0, -1, -195, 741)"/>
<path fill="none" stroke-width="0.4" stroke-linecap="butt" stroke-linejoin="round" stroke="rgb(94.9%, 58%, 0%)" stroke-opacity="1" stroke-miterlimit="10" d="M 286.214844 663.703125 L 275.414062 681.703125 " transform="matrix(1, 0, 0, -1, -195, 741)"/>
<path fill="none" stroke-width="0.4" stroke-linecap="butt" stroke-linejoin="round" stroke="rgb(94.9%, 58%, 0%)" stroke-opacity="1" stroke-miterlimit="10" d="M 286.214844 663.703125 L 264.617188 681.703125 " transform="matrix(1, 0, 0, -1, -195, 741)"/>
<path fill="none" stroke-width="0.4" stroke-linecap="butt" stroke-linejoin="round" stroke="rgb(89.8%, 19.2%, 22%)" stroke-opacity="1" stroke-miterlimit="10" d="M 319.511719 669.457031 C 303.515625 677.621094 287.199219 677.472656 270.570312 669.015625 " transform="matrix(1, 0, 0, -1, -195, 741)"/>
<path fill-rule="evenodd" fill="rgb(89.8%, 19.2%, 22%)" fill-opacity="1" stroke-width="0.4" stroke-linecap="butt" stroke-linejoin="round" stroke="rgb(89.8%, 19.2%, 22%)" stroke-opacity="1" stroke-miterlimit="10" d="M 270.570312 669.015625 L 273.695312 669.484375 L 272.789062 671.265625 Z M 270.570312 669.015625 " transform="matrix(1, 0, 0, -1, -195, 741)"/>
<path fill="none" stroke-width="0.4" stroke-linecap="butt" stroke-linejoin="round" stroke="rgb(89.8%, 19.2%, 22%)" stroke-opacity="1" stroke-miterlimit="10" d="M 249.015625 653.542969 C 245.304688 660.964844 236.980469 664.859375 228.90625 662.953125 C 220.832031 661.046875 215.128906 653.839844 215.128906 645.542969 " transform="matrix(1, 0, 0, -1, -195, 741)"/>
<path fill-rule="evenodd" fill="rgb(89.8%, 19.2%, 22%)" fill-opacity="1" stroke-width="0.4" stroke-linecap="butt" stroke-linejoin="round" stroke="rgb(89.8%, 19.2%, 22%)" stroke-opacity="1" stroke-miterlimit="10" d="M 215.128906 645.542969 L 216.125 648.542969 L 214.128906 648.542969 Z M 215.128906 645.542969 " transform="matrix(1, 0, 0, -1, -195, 741)"/>
<path fill="none" stroke-width="0.8" stroke-linecap="butt" stroke-linejoin="round" stroke="rgb(94.9%, 58%, 0%)" stroke-opacity="1" stroke-miterlimit="10" d="M 233.015625 674.417969 L 233.015625 645.542969 " transform="matrix(1, 0, 0, -1, -195, 741)"/>
<path fill="none" stroke-width="0.8" stroke-linecap="butt" stroke-linejoin="round" stroke="rgb(94.9%, 58%, 0%)" stroke-opacity="1" stroke-miterlimit="10" d="M 242.617188 672.808594 C 240.761719 663.71875 237.558594 654.632812 233.015625 645.542969 " transform="matrix(1, 0, 0, -1, -195, 741)"/>
<path fill="none" stroke-width="0.8" stroke-linecap="butt" stroke-linejoin="round" stroke="rgb(94.9%, 58%, 0%)" stroke-opacity="1" stroke-miterlimit="10" d="M 220.566406 671.671875 C 223.320312 663.507812 227.527344 654.953125 233.015625 645.542969 " transform="matrix(1, 0, 0, -1, -195, 741)"/>
<path fill="none" stroke-width="0.8" stroke-linecap="butt" stroke-linejoin="round" stroke="rgb(94.9%, 58%, 0%)" stroke-opacity="1" stroke-miterlimit="10" d="M 215.996094 668.898438 C 219.828125 660.859375 225.550781 653.007812 233.015625 645.542969 " transform="matrix(1, 0, 0, -1, -195, 741)"/>
<path fill="none" stroke-width="0.8" stroke-linecap="butt" stroke-linejoin="round" stroke="rgb(94.9%, 58%, 0%)" stroke-opacity="1" stroke-miterlimit="10" d="M 211.433594 664.769531 C 216.445312 657.5 223.640625 650.898438 233.015625 645.542969 " transform="matrix(1, 0, 0, -1, -195, 741)"/>
<path fill="none" stroke-width="0.8" stroke-linecap="butt" stroke-linejoin="round" stroke="rgb(94.9%, 58%, 0%)" stroke-opacity="1" stroke-miterlimit="10" d="M 208.960938 661.601562 C 214.945312 655.414062 222.964844 649.789062 233.015625 645.109375 " transform="matrix(1, 0, 0, -1, -195, 741)"/>
<path fill-rule="evenodd" fill="rgb(0%, 0%, 0%)" fill-opacity="1" d="M 39.816406 3.296875 C 39.816406 0.898438 36.214844 0.898438 36.214844 3.296875 C 36.214844 5.695312 39.816406 5.695312 39.816406 3.296875 Z M 39.816406 3.296875 "/>
<path fill-rule="evenodd" fill="rgb(0%, 0%, 0%)" fill-opacity="1" d="M 39.816406 49.378906 C 39.816406 46.976562 36.214844 46.976562 36.214844 49.378906 C 36.214844 51.777344 39.816406 51.777344 39.816406 49.378906 Z M 39.816406 49.378906 "/>
<path fill-rule="evenodd" fill="rgb(0%, 0%, 0%)" fill-opacity="1" d="M 62.855469 49.378906 C 62.855469 46.976562 59.257812 46.976562 59.257812 49.378906 C 59.257812 51.777344 62.855469 51.777344 62.855469 49.378906 Z M 62.855469 49.378906 "/>
<path fill-rule="evenodd" fill="rgb(0%, 0%, 0%)" fill-opacity="1" d="M 51.335938 49.378906 C 51.335938 46.976562 47.734375 46.976562 47.734375 49.378906 C 47.734375 51.777344 51.335938 51.777344 51.335938 49.378906 Z M 51.335938 49.378906 "/>
<path fill-rule="evenodd" fill="rgb(94.9%, 58%, 0%)" fill-opacity="1" d="M 93.015625 77.296875 C 93.015625 74.898438 89.414062 74.898438 89.414062 77.296875 C 89.414062 79.695312 93.015625 79.695312 93.015625 77.296875 Z M 93.015625 77.296875 "/>
<path fill-rule="evenodd" fill="rgb(100%, 100%, 100%)" fill-opacity="1" d="M 99.515625 97.796875 L 104.515625 97.796875 L 104.515625 92.796875 L 99.515625 92.796875 Z M 99.515625 97.796875 "/>
<path fill-rule="evenodd" fill="rgb(94.9%, 58%, 0%)" fill-opacity="1" d="M 99.015625 98.296875 L 105.015625 98.296875 L 105.015625 92.296875 L 99.015625 92.296875 Z M 100.015625 97.296875 L 104.015625 97.296875 L 104.015625 93.296875 L 100.015625 93.296875 Z M 100.015625 97.296875 "/>
<path fill-rule="evenodd" fill="rgb(100%, 100%, 100%)" fill-opacity="1" d="M 39.515625 3.296875 C 39.515625 1.296875 36.515625 1.296875 36.515625 3.296875 C 36.515625 5.296875 39.515625 5.296875 39.515625 3.296875 Z M 39.515625 3.296875 "/>
<path fill-rule="evenodd" fill="rgb(0%, 0%, 0%)" fill-opacity="1" d="M 39.816406 3.296875 C 39.816406 0.898438 36.214844 0.898438 36.214844 3.296875 C 36.214844 5.695312 39.816406 5.695312 39.816406 3.296875 Z M 39.214844 3.296875 C 39.214844 1.695312 36.816406 1.695312 36.816406 3.296875 C 36.816406 4.898438 39.214844 4.898438 39.214844 3.296875 Z M 39.214844 3.296875 "/>
<path fill-rule="evenodd" fill="rgb(94.9%, 58%, 0%)" fill-opacity="1" d="M 118.214844 59.296875 C 118.214844 56.898438 114.617188 56.898438 114.617188 59.296875 C 114.617188 61.695312 118.214844 61.695312 118.214844 59.296875 Z M 118.214844 59.296875 "/>
<path fill-rule="evenodd" fill="rgb(94.9%, 58%, 0%)" fill-opacity="1" d="M 129.015625 59.296875 C 129.015625 56.898438 125.414062 56.898438 125.414062 59.296875 C 125.414062 61.695312 129.015625 61.695312 129.015625 59.296875 Z M 129.015625 59.296875 "/>
<path fill-rule="evenodd" fill="rgb(94.9%, 58%, 0%)" fill-opacity="1" d="M 107.414062 59.296875 C 107.414062 56.898438 103.816406 56.898438 103.816406 59.296875 C 103.816406 61.695312 107.414062 61.695312 107.414062 59.296875 Z M 107.414062 59.296875 "/>
<path fill-rule="evenodd" fill="rgb(94.9%, 58%, 0%)" fill-opacity="1" d="M 82.214844 59.296875 C 82.214844 56.898438 78.617188 56.898438 78.617188 59.296875 C 78.617188 61.695312 82.214844 61.695312 82.214844 59.296875 Z M 82.214844 59.296875 "/>
<path fill-rule="evenodd" fill="rgb(94.9%, 58%, 0%)" fill-opacity="1" d="M 93.015625 59.296875 C 93.015625 56.898438 89.414062 56.898438 89.414062 59.296875 C 89.414062 61.695312 93.015625 61.695312 93.015625 59.296875 Z M 93.015625 59.296875 "/>
<path fill-rule="evenodd" fill="rgb(94.9%, 58%, 0%)" fill-opacity="1" d="M 71.414062 59.296875 C 71.414062 56.898438 67.816406 56.898438 67.816406 59.296875 C 67.816406 61.695312 71.414062 61.695312 71.414062 59.296875 Z M 71.414062 59.296875 "/>
<path fill-rule="evenodd" fill="rgb(100%, 100%, 100%)" fill-opacity="1" d="M 113.914062 79.796875 L 118.914062 79.796875 L 118.914062 74.796875 L 113.914062 74.796875 Z M 113.914062 79.796875 "/>
<path fill-rule="evenodd" fill="rgb(94.9%, 58%, 0%)" fill-opacity="1" d="M 113.414062 80.296875 L 119.414062 80.296875 L 119.414062 74.296875 L 113.414062 74.296875 Z M 114.414062 79.296875 L 118.414062 79.296875 L 118.414062 75.296875 L 114.414062 75.296875 Z M 114.414062 79.296875 "/>
<path fill-rule="evenodd" fill="rgb(94.9%, 58%, 0%)" fill-opacity="1" d="M 39.816406 95.457031 C 39.816406 93.058594 36.214844 93.058594 36.214844 95.457031 C 36.214844 97.855469 39.816406 97.855469 39.816406 95.457031 Z M 39.816406 95.457031 "/>
</svg>
