<?xml version="1.0" encoding="UTF-8"?>
<svg xmlns="http://www.w3.org/2000/svg" xmlns:xlink="http://www.w3.org/1999/xlink" width="110" height="118" viewBox="0 0 110 118">
<path fill="none" stroke-width="1.5" stroke-linecap="butt" stroke-linejoin="round" stroke="rgb(0%, 0%, 0%)" stroke-opacity="1" stroke-miterlimit="10" d="M 213.332031 609.332031 C 224 620 237.332031 620 244.890625 619.109375 C 252.445312 618.222656 254.222656 616.445312 255.113281 608.890625 C 256 601.332031 256 588 245.332031 577.332031 " transform="matrix(1, 0, 0, -1, -210, 637)"/>
<path fill="none" stroke-width="1.5" stroke-linecap="butt" stroke-linejoin="round" stroke="rgb(0%, 0%, 0%)" stroke-opacity="1" stroke-miterlimit="10" d="M 277.332031 625.332031 C 288 636 301.332031 636 308.890625 635.109375 C 316.445312 634.222656 318.222656 632.445312 319.109375 624.890625 C 320 617.332031 320 604 309.332031 593.332031 " transform="matrix(1, 0, 0, -1, -210, 637)"/>
<path fill="none" stroke-width="1.5" stroke-linecap="butt" stroke-linejoin="round" stroke="rgb(0%, 35.3%, 63.1%)" stroke-opacity="1" stroke-miterlimit="10" d="M 309.332031 521.332031 L 277.332031 553.332031 " transform="matrix(1, 0, 0, -1, -210, 637)"/>
<path fill="none" stroke-width="1.5" stroke-linecap="butt" stroke-linejoin="round" stroke="rgb(89.8%, 19.2%, 22%)" stroke-opacity="1" stroke-miterlimit="10" d="M 277.332031 521.332031 C 295.109375 524.890625 305.777344 535.554688 309.332031 553.332031 " transform="matrix(1, 0, 0, -1, -210, 637)"/>
<path fill="none" stroke-width="1.5" stroke-linecap="butt" stroke-linejoin="round" stroke="rgb(0%, 35.3%, 63.1%)" stroke-opacity="1" stroke-miterlimit="10" d="M 277.332031 521.332031 L 309.332031 553.332031 " transform="matrix(1, 0, 0, -1, -210, 637)"/>
<path fill="none" stroke-width="1.5" stroke-linecap="butt" stroke-linejoin="round" stroke="rgb(0%, 0%, 0%)" stroke-opacity="1" stroke-miterlimit="10" d="M 277.335938 553.332031 L 277.335938 521.332031 L 309.335938 521.332031 L 309.335938 553.332031 Z M 277.335938 553.332031 " transform="matrix(1, 0, 0, -1, -210, 637)"/>
<path fill-rule="evenodd" fill="rgb(0%, 0%, 0%)" fill-opacity="1" d="M 101.132812 115.667969 C 101.132812 113.265625 97.53125 113.265625 97.53125 115.667969 C 97.53125 118.066406 101.132812 118.066406 101.132812 115.667969 Z M 101.132812 115.667969 "/>
<path fill-rule="evenodd" fill="rgb(0%, 0%, 0%)" fill-opacity="1" d="M 69.132812 115.667969 C 69.132812 113.265625 65.53125 113.265625 65.53125 115.667969 C 65.53125 118.066406 69.132812 118.066406 69.132812 115.667969 Z M 69.132812 115.667969 "/>
<path fill-rule="evenodd" fill="rgb(0%, 0%, 0%)" fill-opacity="1" d="M 69.132812 83.667969 C 69.132812 81.265625 65.53125 81.265625 65.53125 83.667969 C 65.53125 86.066406 69.132812 86.066406 69.132812 83.667969 Z M 69.132812 83.667969 "/>
<path fill-rule="evenodd" fill="rgb(0%, 0%, 0%)" fill-opacity="1" d="M 101.132812 83.667969 C 101.132812 81.265625 97.53125 81.265625 97.53125 83.667969 C 97.53125 86.066406 101.132812 86.066406 101.132812 83.667969 Z M 101.132812 83.667969 "/>
<path fill-rule="evenodd" fill="rgb(0%, 0%, 0%)" fill-opacity="1" d="M 85.132812 99.667969 C 85.132812 97.265625 81.53125 97.265625 81.53125 99.667969 C 81.53125 102.066406 85.132812 102.066406 85.132812 99.667969 Z M 85.132812 99.667969 "/>
<path fill="none" stroke-width="1.5" stroke-linecap="butt" stroke-linejoin="round" stroke="rgb(0%, 0%, 0%)" stroke-opacity="1" stroke-miterlimit="10" d="M 277.332031 553.332031 C 288 564 301.332031 564 308.890625 563.109375 C 316.445312 562.222656 318.222656 560.445312 319.109375 552.890625 C 320 545.332031 320 532 309.332031 521.332031 " transform="matrix(1, 0, 0, -1, -210, 637)"/>
<path fill="none" stroke-width="1.5" stroke-linecap="butt" stroke-linejoin="round" stroke="rgb(0%, 35.3%, 63.1%)" stroke-opacity="1" stroke-miterlimit="10" d="M 245.332031 577.332031 L 213.332031 609.332031 " transform="matrix(1, 0, 0, -1, -210, 637)"/>
<path fill="none" stroke-width="1.5" stroke-linecap="butt" stroke-linejoin="round" stroke="rgb(0%, 35.3%, 63.1%)" stroke-opacity="1" stroke-miterlimit="10" d="M 213.332031 577.332031 L 245.332031 609.332031 " transform="matrix(1, 0, 0, -1, -210, 637)"/>
<path fill="none" stroke-width="1.5" stroke-linecap="butt" stroke-linejoin="round" stroke="rgb(0%, 0%, 0%)" stroke-opacity="1" stroke-miterlimit="10" d="M 213.332031 609.332031 L 213.332031 577.332031 L 245.332031 577.332031 L 245.332031 609.332031 Z M 213.332031 609.332031 " transform="matrix(1, 0, 0, -1, -210, 637)"/>
<path fill-rule="evenodd" fill="rgb(0%, 0%, 0%)" fill-opacity="1" d="M 37.132812 59.667969 C 37.132812 57.265625 33.53125 57.265625 33.53125 59.667969 C 33.53125 62.066406 37.132812 62.066406 37.132812 59.667969 Z M 37.132812 59.667969 "/>
<path fill-rule="evenodd" fill="rgb(0%, 0%, 0%)" fill-opacity="1" d="M 5.132812 59.667969 C 5.132812 57.265625 1.53125 57.265625 1.53125 59.667969 C 1.53125 62.066406 5.132812 62.066406 5.132812 59.667969 Z M 5.132812 59.667969 "/>
<path fill-rule="evenodd" fill="rgb(0%, 0%, 0%)" fill-opacity="1" d="M 5.132812 27.667969 C 5.132812 25.265625 1.53125 25.265625 1.53125 27.667969 C 1.53125 30.066406 5.132812 30.066406 5.132812 27.667969 Z M 5.132812 27.667969 "/>
<path fill-rule="evenodd" fill="rgb(0%, 0%, 0%)" fill-opacity="1" d="M 37.132812 27.667969 C 37.132812 25.265625 33.53125 25.265625 33.53125 27.667969 C 33.53125 30.066406 37.132812 30.066406 37.132812 27.667969 Z M 37.132812 27.667969 "/>
<path fill-rule="evenodd" fill="rgb(0%, 0%, 0%)" fill-opacity="1" d="M 21.132812 43.667969 C 21.132812 41.265625 17.53125 41.265625 17.53125 43.667969 C 17.53125 46.066406 21.132812 46.066406 21.132812 43.667969 Z M 21.132812 43.667969 "/>
<path fill="none" stroke-width="1.5" stroke-linecap="butt" stroke-linejoin="round" stroke="rgb(89.8%, 19.2%, 22%)" stroke-opacity="1" stroke-miterlimit="10" d="M 277.332031 593.332031 C 295.109375 596.890625 305.777344 607.554688 309.332031 625.332031 " transform="matrix(1, 0, 0, -1, -210, 637)"/>
<path fill="none" stroke-width="1.5" stroke-linecap="butt" stroke-linejoin="round" stroke="rgb(0%, 0%, 0%)" stroke-opacity="1" stroke-miterlimit="10" d="M 277.335938 625.332031 L 277.335938 593.332031 L 309.335938 593.332031 L 309.335938 625.332031 Z M 277.335938 625.332031 " transform="matrix(1, 0, 0, -1, -210, 637)"/>
<path fill-rule="evenodd" fill="rgb(0%, 0%, 0%)" fill-opacity="1" d="M 101.132812 43.667969 C 101.132812 41.265625 97.53125 41.265625 97.53125 43.667969 C 97.53125 46.066406 101.132812 46.066406 101.132812 43.667969 Z M 101.132812 43.667969 "/>
<path fill-rule="evenodd" fill="rgb(0%, 0%, 0%)" fill-opacity="1" d="M 69.132812 43.667969 C 69.132812 41.265625 65.53125 41.265625 65.53125 43.667969 C 65.53125 46.066406 69.132812 46.066406 69.132812 43.667969 Z M 69.132812 43.667969 "/>
<path fill-rule="evenodd" fill="rgb(0%, 0%, 0%)" fill-opacity="1" d="M 69.132812 11.667969 C 69.132812 9.265625 65.53125 9.265625 65.53125 11.667969 C 65.53125 14.066406 69.132812 14.066406 69.132812 11.667969 Z M 69.132812 11.667969 "/>
<path fill-rule="evenodd" fill="rgb(0%, 0%, 0%)" fill-opacity="1" d="M 101.132812 11.667969 C 101.132812 9.265625 97.53125 9.265625 97.53125 11.667969 C 97.53125 14.066406 101.132812 14.066406 101.132812 11.667969 Z M 101.132812 11.667969 "/>
<path fill-rule="evenodd" fill="rgb(0%, 0%, 0%)" fill-opacity="1" d="M 85.132812 27.667969 C 85.132812 25.265625 81.53125 25.265625 81.53125 27.667969 C 81.53125 30.066406 85.132812 30.066406 85.132812 27.667969 Z M 85.132812 27.667969 "/>
<path fill="none" stroke-width="1.5" stroke-linecap="butt" stroke-linejoin="round" stroke="rgb(60%, 62.4%, 62%)" stroke-opacity="1" stroke-miterlimit="10" d="M 275.121094 562.230469 C 271.347656 571.015625 263.707031 575.933594 252.199219 576.984375 " transform="matrix(1, 0, 0, -1, -210, 637)"/>
<path fill="none" stroke-width="1.5" stroke-linecap="butt" stroke-linejoin="round" stroke="rgb(60%, 62.4%, 62%)" stroke-opacity="1" stroke-miterlimit="10" d="M 275.121094 562.230469 C 269.988281 571.140625 269.769531 579.925781 274.472656 588.585938 " transform="matrix(1, 0, 0, -1, -210, 637)"/>
<path fill="none" stroke-width="1.5" stroke-linecap="butt" stroke-linejoin="round" stroke="rgb(60%, 62.4%, 62%)" stroke-opacity="1" stroke-miterlimit="10" d="M 275.121094 562.230469 L 272.445312 567.496094 " transform="matrix(1, 0, 0, -1, -210, 637)"/>
<path fill-rule="evenodd" fill="rgb(60%, 62.4%, 62%)" fill-opacity="1" stroke-width="1.5" stroke-linecap="butt" stroke-linejoin="round" stroke="rgb(60%, 62.4%, 62%)" stroke-opacity="1" stroke-miterlimit="10" d="M 275.121094 562.230469 L 274.339844 567.441406 L 271.371094 565.933594 Z M 275.121094 562.230469 " transform="matrix(1, 0, 0, -1, -210, 637)"/>
</svg>
