<?xml version="1.0"?>
<svg xmlns="http://www.w3.org/2000/svg" xmlns:xlink="http://www.w3.org/1999/xlink" xmlns:ev="http://www.w3.org/2001/xml-events" version="1.1" baseProfile="full" viewBox="28.5 28.5 593 923">
	<g>
		<g>
			<polygon points="108,930,110.147,925.315,112.1,926.877," stroke="#000000" stroke-width="1.000000px" />
			<path fill="none" d=" M100,840 L140,890 M140,890 L108,930" stroke="#000000" stroke-width="1.000000px" />
		</g>
		<g>
			<polygon points="100,880,98.75,875,101.25,875," stroke="#000000" stroke-width="1.000000px" />
			<path fill="none" d=" M100,840 L100,875" stroke="#000000" stroke-width="1.000000px" />
		</g>
		<g>
			<polygon points="450,249.556,453.35,245.639,454.799,247.677," stroke="#000000" stroke-width="1.000000px" />
			<path fill="none" d=" M515,203.333 L450,249.556" stroke="#000000" stroke-width="1.000000px" />
		</g>
		<g>
			<polygon points="543.438,246.667,539.649,243.172,541.739,241.801," stroke="#000000" stroke-width="1.000000px" />
			<path fill="none" d=" M515,203.333 L543.438,246.667" stroke="#000000" stroke-width="1.000000px" />
		</g>
		<g>
			<polygon points="420,627.917,422.94,623.683,424.586,625.565," stroke="#000000" stroke-width="1.000000px" />
			<path fill="none" d=" M530,316.667 L490,370 M490,370 L490,566.667 M490,566.667 L420,627.917" stroke="#000000" stroke-width="1.000000px" />
		</g>
		<g>
			<polygon points="543.75,440,544.335,434.879,546.676,435.757," stroke="#000000" stroke-width="1.000000px" />
			<path fill="none" d=" M530,316.667 L570,370 M570,370 L543.75,440" stroke="#000000" stroke-width="1.000000px" />
		</g>
		<g>
			<polygon points="360,80,358.75,75,361.25,75," stroke="#000000" stroke-width="1.000000px" />
			<path fill="none" d=" M360,40 L360,75" stroke="#000000" stroke-width="1.000000px" />
		</g>
		<g>
			<polygon points="97,556.667,94.366,552.237,96.7605,551.518," stroke="#000000" stroke-width="1.000000px" />
			<path fill="none" d=" M80,203.333 L80,256.667 M80,256.667 L80,500 M80,500 L97,556.667" stroke="#000000" stroke-width="1.000000px" />
		</g>
		<g>
			<polygon points="200,490,198.75,485,201.25,485," stroke="#000000" stroke-width="1.000000px" />
			<path fill="none" d=" M200,450 L200,485" stroke="#000000" stroke-width="1.000000px" />
		</g>
		<g>
			<polygon points="100,830,98.75,825,101.25,825," stroke="#000000" stroke-width="1.000000px" />
			<path fill="none" d=" M100,566.667 L100,636.667 M100,636.667 L100,753.333 M100,753.333 L100,825" stroke="#000000" stroke-width="1.000000px" />
		</g>
		<g>
			<polygon points="530,326.667,528.75,331.667,531.25,331.667," stroke="#000000" stroke-width="1.000000px" />
			<path fill="none" d=" M540,450 L530,370 M530,370 L530,331.667" stroke="#000000" stroke-width="1.000000px" />
		</g>
		<g>
			<polygon points="405.714,626.667,402.596,622.563,404.894,621.579," stroke="#000000" stroke-width="1.000000px" />
			<path fill="none" d=" M380,566.667 L405.714,626.667" stroke="#000000" stroke-width="1.000000px" />
		</g>
		<g>
			<polygon points="354.286,626.667,355.106,621.579,357.404,622.563," stroke="#000000" stroke-width="1.000000px" />
			<path fill="none" d=" M380,566.667 L354.286,626.667" stroke="#000000" stroke-width="1.000000px" />
		</g>
		<g>
			<polygon points="376,490,372.982,485.822,375.304,484.893," stroke="#000000" stroke-width="1.000000px" />
			<path fill="none" d=" M380,370 L360,450 M360,450 L376,490" stroke="#000000" stroke-width="1.000000px" />
		</g>
		<g>
			<polygon points="210,445.556,214.061,442.383,215.077,444.667," stroke="#000000" stroke-width="1.000000px" />
			<path fill="none" d=" M380,370 L210,445.556" stroke="#000000" stroke-width="1.000000px" />
		</g>
		<g>
			<polygon points="287.059,193.333,288.921,188.528,290.963,189.969," stroke="#000000" stroke-width="1.000000px" />
			<path fill="none" d=" M360,90 L287.059,193.333" stroke="#000000" stroke-width="1.000000px" />
		</g>
		<g>
			<polygon points="360,193.333,358.75,188.333,361.25,188.333," stroke="#000000" stroke-width="1.000000px" />
			<path fill="none" d=" M360,90 L360,188.333" stroke="#000000" stroke-width="1.000000px" />
		</g>
		<g>
			<polygon points="446.618,193.333,442.448,190.304,444.364,188.698," stroke="#000000" stroke-width="1.000000px" />
			<path fill="none" d=" M360,90 L446.618,193.333" stroke="#000000" stroke-width="1.000000px" />
		</g>
		<g>
			<polygon points="505,196.022,500.226,194.079,501.702,192.061," stroke="#000000" stroke-width="1.000000px" />
			<path fill="none" d=" M360,90 L505,196.022" stroke="#000000" stroke-width="1.000000px" />
		</g>
		<g>
			<polygon points="90,199.286,94.1657,196.251,95.1037,198.568," stroke="#000000" stroke-width="1.000000px" />
			<path fill="none" d=" M360,90 L90,199.286" stroke="#000000" stroke-width="1.000000px" />
		</g>
		<g>
			<polygon points="92,850,89.8526,854.685,87.9004,853.123," stroke="#000000" stroke-width="1.000000px" />
			<path fill="none" d=" M100,940 L60,890 M60,890 L92,850" stroke="#000000" stroke-width="1.000000px" />
		</g>
		<g>
			<polygon points="170,311.667,173.913,308.313,175.031,310.549," stroke="#000000" stroke-width="1.000000px" />
			<path fill="none" d=" M280,256.667 L170,311.667" stroke="#000000" stroke-width="1.000000px" />
		</g>
		<g>
			<polygon points="280,306.667,278.75,301.667,281.25,301.667," stroke="#000000" stroke-width="1.000000px" />
			<path fill="none" d=" M280,256.667 L280,301.667" stroke="#000000" stroke-width="1.000000px" />
		</g>
		<g>
			<polygon points="380,556.667,378.75,551.667,381.25,551.667," stroke="#000000" stroke-width="1.000000px" />
			<path fill="none" d=" M380,500 L380,551.667" stroke="#000000" stroke-width="1.000000px" />
		</g>
		<g>
			<polygon points="382.5,380,384.925,384.548,382.5,385.154," stroke="#000000" stroke-width="1.000000px" />
			<path fill="none" d=" M380,500 L400,450 M400,450 L382.5,380" stroke="#000000" stroke-width="1.000000px" />
		</g>
		<g>
			<polygon points="290,748.571,284.948,747.55,286.023,745.293," stroke="#000000" stroke-width="1.000000px" />
			<path fill="none" d=" M160,316.667 L160,370 M160,370 L160,686.667 M160,686.667 L290,748.571" stroke="#000000" stroke-width="1.000000px" />
		</g>
		<g>
			<polygon points="400,632,394.94,631.018,395.998,628.753," stroke="#000000" stroke-width="1.000000px" />
			<path fill="none" d=" M260,566.667 L400,632" stroke="#000000" stroke-width="1.000000px" />
		</g>
		<g>
			<polygon points="260,626.667,258.75,621.667,261.25,621.667," stroke="#000000" stroke-width="1.000000px" />
			<path fill="none" d=" M260,566.667 L260,621.667" stroke="#000000" stroke-width="1.000000px" />
		</g>
		<g>
			<polygon points="110,835.667,114.091,832.532,115.085,834.826," stroke="#000000" stroke-width="1.000000px" />
			<path fill="none" d=" M300,753.333 L110,835.667" stroke="#000000" stroke-width="1.000000px" />
		</g>
		<g>
			<polygon points="280,360,278.75,355,281.25,355," stroke="#000000" stroke-width="1.000000px" />
			<path fill="none" d=" M280,316.667 L280,355" stroke="#000000" stroke-width="1.000000px" />
		</g>
		<g>
			<polygon points="370,364.667,365,363.417,366.176,361.211," stroke="#000000" stroke-width="1.000000px" />
			<path fill="none" d=" M280,316.667 L370,364.667" stroke="#000000" stroke-width="1.000000px" />
		</g>
		<g>
			<polygon points="376.25,360,373.324,355.757,375.665,354.879," stroke="#000000" stroke-width="1.000000px" />
			<path fill="none" d=" M360,203.333 L360,256.667 M360,256.667 L360,316.667 M360,316.667 L376.25,360" stroke="#000000" stroke-width="1.000000px" />
		</g>
		<g>
			<polygon points="410,743.333,408.75,738.333,411.25,738.333," stroke="#000000" stroke-width="1.000000px" />
			<path fill="none" d=" M410,686.667 L410,738.333" stroke="#000000" stroke-width="1.000000px" />
		</g>
		<g>
			<polygon points="310,747.273,313.628,743.612,314.924,745.75," stroke="#000000" stroke-width="1.000000px" />
			<path fill="none" d=" M410,686.667 L310,747.273" stroke="#000000" stroke-width="1.000000px" />
		</g>
		<g>
			<polygon points="103,556.667,103.239,551.518,105.634,552.237," stroke="#000000" stroke-width="1.000000px" />
			<path fill="none" d=" M120,500 L103,556.667" stroke="#000000" stroke-width="1.000000px" />
		</g>
		<g>
			<polygon points="300,743.333,298.75,738.333,301.25,738.333," stroke="#000000" stroke-width="1.000000px" />
			<path fill="none" d=" M200,500 L300,566.667 M300,566.667 L300,686.667 M300,686.667 L300,738.333" stroke="#000000" stroke-width="1.000000px" />
		</g>
		<g>
			<polygon points="110,560,113.467,556.186,114.854,558.267," stroke="#000000" stroke-width="1.000000px" />
			<path fill="none" d=" M200,500 L110,560" stroke="#000000" stroke-width="1.000000px" />
		</g>
		<g>
			<polygon points="370,561.905,364.948,560.884,366.023,558.627," stroke="#000000" stroke-width="1.000000px" />
			<path fill="none" d=" M240,256.667 L240,316.667 M240,316.667 L240,500 M240,500 L370,561.905" stroke="#000000" stroke-width="1.000000px" />
		</g>
		<g>
			<polygon points="410,676.667,408.75,671.667,411.25,671.667," stroke="#000000" stroke-width="1.000000px" />
			<path fill="none" d=" M410,636.667 L410,671.667" stroke="#000000" stroke-width="1.000000px" />
		</g>
		<g>
			<polygon points="442.812,246.667,442.963,241.515,445.37,242.192," stroke="#000000" stroke-width="1.000000px" />
			<path fill="none" d=" M455,203.333 L442.812,246.667" stroke="#000000" stroke-width="1.000000px" />
		</g>
		<g>
			<polygon points="523.382,306.667,519.581,303.187,521.665,301.807," stroke="#000000" stroke-width="1.000000px" />
			<path fill="none" d=" M455,203.333 L490.294,256.667 M490.294,256.667 L523.382,306.667" stroke="#000000" stroke-width="1.000000px" />
		</g>
		<g>
			<polygon points="50,251.333,53.8235,247.877,55,250.083," stroke="#000000" stroke-width="1.000000px" />
			<path fill="none" d=" M140,203.333 L50,251.333" stroke="#000000" stroke-width="1.000000px" />
		</g>
		<g>
			<polygon points="230,251.333,225,250.083,226.176,247.877," stroke="#000000" stroke-width="1.000000px" />
			<path fill="none" d=" M140,203.333 L230,251.333" stroke="#000000" stroke-width="1.000000px" />
		</g>
		<g>
			<polygon points="533.333,306.667,533.729,301.528,536.1,302.319," stroke="#000000" stroke-width="1.000000px" />
			<path fill="none" d=" M550,256.667 L533.333,306.667" stroke="#000000" stroke-width="1.000000px" />
		</g>
		<g>
			<polygon points="280,246.667,278.75,241.667,281.25,241.667," stroke="#000000" stroke-width="1.000000px" />
			<path fill="none" d=" M280,203.333 L280,241.667" stroke="#000000" stroke-width="1.000000px" />
		</g>
		<g>
			<polygon points="247.5,246.667,249.5,241.917,251.5,243.417," stroke="#000000" stroke-width="1.000000px" />
			<path fill="none" d=" M280,203.333 L247.5,246.667" stroke="#000000" stroke-width="1.000000px" />
		</g>
		<g>
			<polygon points="312.5,246.667,308.5,243.417,310.5,241.917," stroke="#000000" stroke-width="1.000000px" />
			<path fill="none" d=" M280,203.333 L312.5,246.667" stroke="#000000" stroke-width="1.000000px" />
		</g>
		<g>
			<polygon points="40,306.667,38.75,301.667,41.25,301.667," stroke="#000000" stroke-width="1.000000px" />
			<path fill="none" d=" M40,256.667 L40,301.667" stroke="#000000" stroke-width="1.000000px" />
		</g>
		<g>
			<polygon points="93.0769,830,89.2031,826.601,91.2586,825.178," stroke="#000000" stroke-width="1.000000px" />
			<path fill="none" d=" M40,316.667 L40,370 M40,370 L40,753.333 M40,753.333 L93.0769,830" stroke="#000000" stroke-width="1.000000px" />
		</g>
		<g>
			<polygon points="371,556.667,366.726,553.786,368.584,552.114," stroke="#000000" stroke-width="1.000000px" />
			<path fill="none" d=" M320,256.667 L320,316.667 M320,316.667 L320,500 M320,500 L371,556.667" stroke="#000000" stroke-width="1.000000px" />
		</g>
		<g>
			<polygon points="389,556.667,391.416,552.114,393.274,553.786," stroke="#000000" stroke-width="1.000000px" />
			<path fill="none" d=" M440,256.667 L440,316.667 M440,316.667 L440,500 M440,500 L389,556.667" stroke="#000000" stroke-width="1.000000px" />
		</g>
	</g>
	<g>
		<rect x="90" y="829.99999999999989" width="20" height="20" fill="#FFFFFF" stroke-width="1.000000px" stroke="#000000" />
		<text x="100" y="839.99999999999989" text-anchor="middle" dominant-baseline="middle" font-family="Arial" font-size="10" fill="#000000">Simultaneous Embedding with Fixed Edges</text>
	</g>
	<g>
		<rect x="505" y="193.33333333333331" width="20" height="20" fill="#FFFFFF" stroke-width="1.000000px" stroke="#000000" />
		<text x="515" y="203.33333333333331" text-anchor="middle" dominant-baseline="middle" font-family="Arial" font-size="10" fill="#000000">Partial Rotation Planarity</text>
	</g>
	<g>
		<rect x="520" y="306.66666666666663" width="20" height="20" fill="#FFFFFF" stroke-width="1.000000px" stroke="#000000" />
		<text x="530" y="316.66666666666663" text-anchor="middle" dominant-baseline="middle" font-family="Arial" font-size="10" fill="#000000">ec-Planarity with free edges</text>
	</g>
	<g>
		<rect x="350" y="30" width="20" height="20" fill="#FFFFFF" stroke-width="1.000000px" stroke="#000000" />
		<text x="360" y="40" text-anchor="middle" dominant-baseline="middle" font-family="Arial" font-size="10" fill="#000000">Outer Planarity</text>
	</g>
	<g>
		<rect x="70" y="193.33333333333331" width="20" height="20" fill="#FFFFFF" stroke-width="1.000000px" stroke="#000000" />
		<text x="80" y="203.33333333333331" text-anchor="middle" dominant-baseline="middle" font-family="Arial" font-size="10" fill="#000000">Partial Planarity</text>
	</g>
	<g>
		<rect x="190" y="439.99999999999994" width="20" height="20" fill="#FFFFFF" stroke-width="1.000000px" stroke="#000000" />
		<text x="200" y="449.99999999999994" text-anchor="middle" dominant-baseline="middle" font-family="Arial" font-size="10" fill="#000000">Partitioned 3-Page Book Embedding</text>
	</g>
	<g>
		<rect x="90" y="556.66666666666663" width="20" height="20" fill="#FFFFFF" stroke-width="1.000000px" stroke="#000000" />
		<text x="100" y="566.66666666666663" text-anchor="middle" dominant-baseline="middle" font-family="Arial" font-size="10" fill="#000000">Streamed Backbone Planarity</text>
	</g>
	<g>
		<rect x="340" y="626.66666666666663" width="20" height="20" fill="#FFFFFF" stroke-width="1.000000px" stroke="#000000" />
		<text x="350" y="636.66666666666663" text-anchor="middle" dominant-baseline="middle" font-family="Arial" font-size="10" fill="#000000">⟨α, β, γ⟩-drawings</text>
	</g>
	<g>
		<rect x="530" y="439.99999999999994" width="20" height="20" fill="#FFFFFF" stroke-width="1.000000px" stroke="#000000" />
		<text x="540" y="449.99999999999994" text-anchor="middle" dominant-baseline="middle" font-family="Arial" font-size="10" fill="#000000">Partially PQ-constrained Planarity</text>
	</g>
	<g>
		<rect x="600" y="30" width="20" height="20" fill="#FFFFFF" stroke-width="1.000000px" stroke="#000000" />
		<text x="610" y="40" text-anchor="middle" dominant-baseline="middle" font-family="Arial" font-size="10" fill="#000000">Book?</text>
	</g>
	<g>
		<rect x="270" y="359.99999999999994" width="20" height="20" fill="#FFFFFF" stroke-width="1.000000px" stroke="#000000" />
		<text x="280" y="369.99999999999994" text-anchor="middle" dominant-baseline="middle" font-family="Arial" font-size="10" fill="#000000">𝒯-level Planarity</text>
	</g>
	<g>
		<rect x="370" y="556.66666666666663" width="20" height="20" fill="#FFFFFF" stroke-width="1.000000px" stroke="#000000" />
		<text x="380" y="566.66666666666663" text-anchor="middle" dominant-baseline="middle" font-family="Arial" font-size="10" fill="#000000">Clustered Planarity</text>
	</g>
	<g>
		<rect x="370" y="359.99999999999994" width="20" height="20" fill="#FFFFFF" stroke-width="1.000000px" stroke="#000000" />
		<text x="380" y="369.99999999999994" text-anchor="middle" dominant-baseline="middle" font-family="Arial" font-size="10" fill="#000000">Partitioned 𝒯-coherent 2-page Book Embedding</text>
	</g>
	<g>
		<rect x="350" y="80" width="20" height="20" fill="#FFFFFF" stroke-width="1.000000px" stroke="#000000" />
		<text x="360" y="90" text-anchor="middle" dominant-baseline="middle" font-family="Arial" font-size="10" fill="#000000">(Standard) Planarity</text>
	</g>
	<g>
		<rect x="90" y="929.99999999999989" width="20" height="20" fill="#FFFFFF" stroke-width="1.000000px" stroke="#000000" />
		<text x="100" y="939.99999999999989" text-anchor="middle" dominant-baseline="middle" font-family="Arial" font-size="10" fill="#000000">Weak Realizability</text>
	</g>
	<g>
		<rect x="270" y="246.66666666666663" width="20" height="20" fill="#FFFFFF" stroke-width="1.000000px" stroke="#000000" />
		<text x="280" y="256.66666666666663" text-anchor="middle" dominant-baseline="middle" font-family="Arial" font-size="10" fill="#000000">Proper Clustered Level Planarity</text>
	</g>
	<g>
		<rect x="370" y="489.99999999999994" width="20" height="20" fill="#FFFFFF" stroke-width="1.000000px" stroke="#000000" />
		<text x="380" y="499.99999999999994" text-anchor="middle" dominant-baseline="middle" font-family="Arial" font-size="10" fill="#000000">Connected SEFE-2</text>
	</g>
	<g>
		<rect x="150" y="306.66666666666663" width="20" height="20" fill="#FFFFFF" stroke-width="1.000000px" stroke="#000000" />
		<text x="160" y="316.66666666666663" text-anchor="middle" dominant-baseline="middle" font-family="Arial" font-size="10" fill="#000000">Clustered Level Planarity</text>
	</g>
	<g>
		<rect x="250" y="556.66666666666663" width="20" height="20" fill="#FFFFFF" stroke-width="1.000000px" stroke="#000000" />
		<text x="260" y="566.66666666666663" text-anchor="middle" dominant-baseline="middle" font-family="Arial" font-size="10" fill="#000000">Row-Column-Independent NodeTrix Planarity</text>
	</g>
	<g>
		<rect x="290" y="743.33333333333326" width="20" height="20" fill="#FFFFFF" stroke-width="1.000000px" stroke="#000000" />
		<text x="300" y="753.33333333333326" text-anchor="middle" dominant-baseline="middle" font-family="Arial" font-size="10" fill="#000000">SEFE-3</text>
	</g>
	<g>
		<rect x="270" y="306.66666666666663" width="20" height="20" fill="#FFFFFF" stroke-width="1.000000px" stroke="#000000" />
		<text x="280" y="316.66666666666663" text-anchor="middle" dominant-baseline="middle" font-family="Arial" font-size="10" fill="#000000">Proper 𝒯-level Planarity</text>
	</g>
	<g>
		<rect x="350" y="193.33333333333331" width="20" height="20" fill="#FFFFFF" stroke-width="1.000000px" stroke="#000000" />
		<text x="360" y="203.33333333333331" text-anchor="middle" dominant-baseline="middle" font-family="Arial" font-size="10" fill="#000000">Partitioned 2-page Book Embedding</text>
	</g>
	<g>
		<rect x="400" y="676.66666666666663" width="20" height="20" fill="#FFFFFF" stroke-width="1.000000px" stroke="#000000" />
		<text x="410" y="686.66666666666663" text-anchor="middle" dominant-baseline="middle" font-family="Arial" font-size="10" fill="#000000">SEFE-2</text>
	</g>
	<g>
		<rect x="110" y="489.99999999999994" width="20" height="20" fill="#FFFFFF" stroke-width="1.000000px" stroke="#000000" />
		<text x="120" y="499.99999999999994" text-anchor="middle" dominant-baseline="middle" font-family="Arial" font-size="10" fill="#000000">Streamed Planarity</text>
	</g>
	<g>
		<rect x="190" y="489.99999999999994" width="20" height="20" fill="#FFFFFF" stroke-width="1.000000px" stroke="#000000" />
		<text x="200" y="499.99999999999994" text-anchor="middle" dominant-baseline="middle" font-family="Arial" font-size="10" fill="#000000">Partitioned 𝒯-coherent 3-page Book Embedding</text>
	</g>
	<g>
		<rect x="230" y="246.66666666666663" width="20" height="20" fill="#FFFFFF" stroke-width="1.000000px" stroke="#000000" />
		<text x="240" y="256.66666666666663" text-anchor="middle" dominant-baseline="middle" font-family="Arial" font-size="10" fill="#000000">Strip Planarity</text>
	</g>
	<g>
		<rect x="400" y="626.66666666666663" width="20" height="20" fill="#FFFFFF" stroke-width="1.000000px" stroke="#000000" />
		<text x="410" y="636.66666666666663" text-anchor="middle" dominant-baseline="middle" font-family="Arial" font-size="10" fill="#000000">Synchronized Planarity</text>
	</g>
	<g>
		<rect x="445" y="193.33333333333331" width="20" height="20" fill="#FFFFFF" stroke-width="1.000000px" stroke="#000000" />
		<text x="455" y="203.33333333333331" text-anchor="middle" dominant-baseline="middle" font-family="Arial" font-size="10" fill="#000000">ec-Planarity</text>
	</g>
	<g>
		<rect x="250" y="626.66666666666663" width="20" height="20" fill="#FFFFFF" stroke-width="1.000000px" stroke="#000000" />
		<text x="260" y="636.66666666666663" text-anchor="middle" dominant-baseline="middle" font-family="Arial" font-size="10" fill="#000000">NodeTrix Planarity</text>
	</g>
	<g>
		<rect x="130" y="193.33333333333331" width="20" height="20" fill="#FFFFFF" stroke-width="1.000000px" stroke="#000000" />
		<text x="140" y="203.33333333333331" text-anchor="middle" dominant-baseline="middle" font-family="Arial" font-size="10" fill="#000000">(Embedded) Strip Planarity</text>
	</g>
	<g>
		<rect x="540" y="246.66666666666663" width="20" height="20" fill="#FFFFFF" stroke-width="1.000000px" stroke="#000000" />
		<text x="550" y="256.66666666666663" text-anchor="middle" dominant-baseline="middle" font-family="Arial" font-size="10" fill="#000000">Partial Rotation Planarity with flips</text>
	</g>
	<g>
		<rect x="270" y="193.33333333333331" width="20" height="20" fill="#FFFFFF" stroke-width="1.000000px" stroke="#000000" />
		<text x="280" y="203.33333333333331" text-anchor="middle" dominant-baseline="middle" font-family="Arial" font-size="10" fill="#000000">Level Planarity</text>
	</g>
	<g>
		<rect x="30" y="246.66666666666663" width="20" height="20" fill="#FFFFFF" stroke-width="1.000000px" stroke="#000000" />
		<text x="40" y="256.66666666666663" text-anchor="middle" dominant-baseline="middle" font-family="Arial" font-size="10" fill="#000000">(Embedded) Upward Planarity</text>
	</g>
	<g>
		<rect x="30" y="306.66666666666663" width="20" height="20" fill="#FFFFFF" stroke-width="1.000000px" stroke="#000000" />
		<text x="40" y="316.66666666666663" text-anchor="middle" dominant-baseline="middle" font-family="Arial" font-size="10" fill="#000000">Upward Planarity</text>
	</g>
	<g>
		<rect x="310" y="246.66666666666663" width="20" height="20" fill="#FFFFFF" stroke-width="1.000000px" stroke="#000000" />
		<text x="320" y="256.66666666666663" text-anchor="middle" dominant-baseline="middle" font-family="Arial" font-size="10" fill="#000000">Radial Level Planarity</text>
	</g>
	<g>
		<rect x="430" y="246.66666666666663" width="20" height="20" fill="#FFFFFF" stroke-width="1.000000px" stroke="#000000" />
		<text x="440" y="256.66666666666663" text-anchor="middle" dominant-baseline="middle" font-family="Arial" font-size="10" fill="#000000">Partially Embedded Planarity</text>
	</g>
	<g>
		<rect x="400" y="743.33333333333326" width="20" height="20" fill="#FFFFFF" stroke-width="1.000000px" stroke="#000000" />
		<text x="410" y="753.33333333333326" text-anchor="middle" dominant-baseline="middle" font-family="Arial" font-size="10" fill="#000000">MaxSEFE</text>
	</g>
	<g>
		<rect x="90" y="879.99999999999989" width="20" height="20" fill="#FFFFFF" stroke-width="1.000000px" stroke="#000000" />
		<text x="100" y="889.99999999999989" text-anchor="middle" dominant-baseline="middle" font-family="Arial" font-size="10" fill="#000000">Hierarchical Planarity</text>
	</g>
</svg>
