<?xml version="1.0"?>
<svg xmlns="http://www.w3.org/2000/svg" xmlns:xlink="http://www.w3.org/1999/xlink" xmlns:ev="http://www.w3.org/2001/xml-events" version="1.1" baseProfile="full" viewBox="28.5 28.5 583 926.333">
	<g>
		<g>
			<polygon points="290,528.333,293.913,524.979,295.031,527.215," stroke="#000000" stroke-width="1.000000px" />
			<path fill="none" d=" M400,243.333 L400,293.333 M400,293.333 L400,473.333 M400,473.333 L290,528.333" stroke="#000000" stroke-width="1.000000px" />
		</g>
		<g>
			<polygon points="50,468.75,54.0245,465.53,55.0661,467.803," stroke="#000000" stroke-width="1.000000px" />
			<path fill="none" d=" M200,400 L50,468.75" stroke="#000000" stroke-width="1.000000px" />
		</g>
		<g>
			<polygon points="270,464.167,265.47,461.709,267.159,459.867," stroke="#000000" stroke-width="1.000000px" />
			<path fill="none" d=" M200,400 L270,464.167" stroke="#000000" stroke-width="1.000000px" />
		</g>
		<g>
			<polygon points="350,716.667,353.467,712.853,354.854,714.933," stroke="#000000" stroke-width="1.000000px" />
			<path fill="none" d=" M440,473.333 L440,533.333 M440,533.333 L440,656.667 M440,656.667 L350,716.667" stroke="#000000" stroke-width="1.000000px" />
		</g>
		<g>
			<polygon points="530,527.333,525.069,525.833,526.356,523.689," stroke="#000000" stroke-width="1.000000px" />
			<path fill="none" d=" M440,473.333 L530,527.333" stroke="#000000" stroke-width="1.000000px" />
		</g>
		<g>
			<polygon points="245.455,596.667,246.751,591.679,248.946,592.876," stroke="#000000" stroke-width="1.000000px" />
			<path fill="none" d=" M280,533.333 L245.455,596.667" stroke="#000000" stroke-width="1.000000px" />
		</g>
		<g>
			<polygon points="297.273,596.667,294.751,592.172,297.163,591.514," stroke="#000000" stroke-width="1.000000px" />
			<path fill="none" d=" M280,533.333 L297.273,596.667" stroke="#000000" stroke-width="1.000000px" />
		</g>
		<g>
			<polygon points="440,336.667,438.75,331.667,441.25,331.667," stroke="#000000" stroke-width="1.000000px" />
			<path fill="none" d=" M440,293.333 L440,331.667" stroke="#000000" stroke-width="1.000000px" />
		</g>
		<g>
			<polygon points="350,341.333,353.824,337.877,355,340.083," stroke="#000000" stroke-width="1.000000px" />
			<path fill="none" d=" M440,293.333 L350,341.333" stroke="#000000" stroke-width="1.000000px" />
		</g>
		<g>
			<polygon points="230,234.762,225.39,232.457,227.017,230.559," stroke="#000000" stroke-width="1.000000px" />
			<path fill="none" d=" M170,183.333 L230,234.762" stroke="#000000" stroke-width="1.000000px" />
		</g>
		<g>
			<polygon points="145,233.333,146.118,228.302,148.354,229.42," stroke="#000000" stroke-width="1.000000px" />
			<path fill="none" d=" M170,183.333 L145,233.333" stroke="#000000" stroke-width="1.000000px" />
		</g>
		<g>
			<polygon points="340,336.667,338.75,331.667,341.25,331.667," stroke="#000000" stroke-width="1.000000px" />
			<path fill="none" d=" M340,183.333 L340,243.333 M340,243.333 L340,293.333 M340,293.333 L340,331.667" stroke="#000000" stroke-width="1.000000px" />
		</g>
		<g>
			<polygon points="230,602.083,224.934,601.136,225.975,598.864," stroke="#000000" stroke-width="1.000000px" />
			<path fill="none" d=" M80,533.333 L230,602.083" stroke="#000000" stroke-width="1.000000px" />
		</g>
		<g>
			<polygon points="170,599.333,165.229,597.385,166.707,595.369," stroke="#000000" stroke-width="1.000000px" />
			<path fill="none" d=" M80,533.333 L170,599.333" stroke="#000000" stroke-width="1.000000px" />
		</g>
		<g>
			<polygon points="350,837.333,353.644,833.689,354.931,835.833," stroke="#000000" stroke-width="1.000000px" />
			<path fill="none" d=" M540,533.333 L540,606.667 M540,606.667 L540,723.333 M540,723.333 L350,837.333" stroke="#000000" stroke-width="1.000000px" />
		</g>
		<g>
			<polygon points="290,523.333,292.652,518.914,294.419,520.682," stroke="#000000" stroke-width="1.000000px" />
			<path fill="none" d=" M340,473.333 L290,523.333" stroke="#000000" stroke-width="1.000000px" />
		</g>
		<g>
			<polygon points="336.25,356.667,335.665,361.787,333.324,360.909," stroke="#000000" stroke-width="1.000000px" />
			<path fill="none" d=" M340,473.333 L320,400 M320,400 L336.25,356.667" stroke="#000000" stroke-width="1.000000px" />
		</g>
		<g>
			<polygon points="543.333,523.333,543.729,518.195,546.1,518.985," stroke="#000000" stroke-width="1.000000px" />
			<path fill="none" d=" M473.913,183.333 L560,243.333 M560,243.333 L560,473.333 M560,473.333 L543.333,523.333" stroke="#000000" stroke-width="1.000000px" />
		</g>
		<g>
			<polygon points="160,303.333,158.75,308.333,161.25,308.333," stroke="#000000" stroke-width="1.000000px" />
			<path fill="none" d=" M160,400 L160,346.667 M160,346.667 L160,308.333" stroke="#000000" stroke-width="1.000000px" />
		</g>
		<g>
			<polygon points="238.333,233.333,236.278,228.607,238.744,228.196," stroke="#000000" stroke-width="1.000000px" />
			<path fill="none" d=" M230,183.333 L238.333,233.333" stroke="#000000" stroke-width="1.000000px" />
		</g>
		<g>
			<polygon points="166.364,283.333,167.993,278.444,170.103,279.786," stroke="#000000" stroke-width="1.000000px" />
			<path fill="none" d=" M230,183.333 L191.818,243.333 M191.818,243.333 L166.364,283.333" stroke="#000000" stroke-width="1.000000px" />
		</g>
		<g>
			<polygon points="280,523.333,278.75,518.333,281.25,518.333," stroke="#000000" stroke-width="1.000000px" />
			<path fill="none" d=" M280,473.333 L280,518.333" stroke="#000000" stroke-width="1.000000px" />
		</g>
		<g>
			<polygon points="240,713.333,238.75,708.333,241.25,708.333," stroke="#000000" stroke-width="1.000000px" />
			<path fill="none" d=" M240,656.667 L240,708.333" stroke="#000000" stroke-width="1.000000px" />
		</g>
		<g>
			<polygon points="330,716.667,325.146,714.933,326.533,712.853," stroke="#000000" stroke-width="1.000000px" />
			<path fill="none" d=" M240,656.667 L330,716.667" stroke="#000000" stroke-width="1.000000px" />
		</g>
		<g>
			<polygon points="342.727,463.333,342.837,458.181,345.249,458.838," stroke="#000000" stroke-width="1.000000px" />
			<path fill="none" d=" M340,346.667 L360,400 M360,400 L342.727,463.333" stroke="#000000" stroke-width="1.000000px" />
		</g>
		<g>
			<polygon points="430,394.667,425,393.417,426.176,391.211," stroke="#000000" stroke-width="1.000000px" />
			<path fill="none" d=" M340,346.667 L430,394.667" stroke="#000000" stroke-width="1.000000px" />
		</g>
		<g>
			<polygon points="350,718.571,353.977,715.293,355.052,717.55," stroke="#000000" stroke-width="1.000000px" />
			<path fill="none" d=" M480,293.333 L480,346.667 M480,346.667 L480,656.667 M480,656.667 L350,718.571" stroke="#000000" stroke-width="1.000000px" />
		</g>
		<g>
			<polygon points="240,646.667,238.75,641.667,241.25,641.667," stroke="#000000" stroke-width="1.000000px" />
			<path fill="none" d=" M240,606.667 L240,641.667" stroke="#000000" stroke-width="1.000000px" />
		</g>
		<g>
			<polygon points="450,233.333,445.581,230.682,447.348,228.914," stroke="#000000" stroke-width="1.000000px" />
			<path fill="none" d=" M400,183.333 L450,233.333" stroke="#000000" stroke-width="1.000000px" />
		</g>
		<g>
			<polygon points="280,463.333,278.75,458.333,281.25,458.333," stroke="#000000" stroke-width="1.000000px" />
			<path fill="none" d=" M400,183.333 L280,243.333 M280,243.333 L280,400 M280,400 L280,458.333" stroke="#000000" stroke-width="1.000000px" />
		</g>
		<g>
			<polygon points="400,233.333,398.75,228.333,401.25,228.333," stroke="#000000" stroke-width="1.000000px" />
			<path fill="none" d=" M400,183.333 L400,228.333" stroke="#000000" stroke-width="1.000000px" />
		</g>
		<g>
			<polygon points="273.333,523.333,269.52,519.866,271.6,518.48," stroke="#000000" stroke-width="1.000000px" />
			<path fill="none" d=" M240,243.333 L240,293.333 M240,293.333 L240,473.333 M240,473.333 L273.333,523.333" stroke="#000000" stroke-width="1.000000px" />
		</g>
		<g>
			<polygon points="340,833.333,338.75,828.333,341.25,828.333," stroke="#000000" stroke-width="1.000000px" />
			<path fill="none" d=" M340,723.333 L340,828.333" stroke="#000000" stroke-width="1.000000px" />
		</g>
		<g>
			<polygon points="40,523.333,38.75,518.333,41.25,518.333," stroke="#000000" stroke-width="1.000000px" />
			<path fill="none" d=" M40,473.333 L40,518.333" stroke="#000000" stroke-width="1.000000px" />
		</g>
		<g>
			<polygon points="393.571,173.333,389.816,169.803,391.919,168.451," stroke="#000000" stroke-width="1.000000px" />
			<path fill="none" d=" M340,90 L393.571,173.333" stroke="#000000" stroke-width="1.000000px" />
		</g>
		<g>
			<polygon points="340,173.333,338.75,168.333,341.25,168.333," stroke="#000000" stroke-width="1.000000px" />
			<path fill="none" d=" M340,90 L340,168.333" stroke="#000000" stroke-width="1.000000px" />
		</g>
		<g>
			<polygon points="240,174.848,243.004,170.66,244.621,172.567," stroke="#000000" stroke-width="1.000000px" />
			<path fill="none" d=" M340,90 L240,174.848" stroke="#000000" stroke-width="1.000000px" />
		</g>
		<g>
			<polygon points="180,177.843,183.781,174.341,184.984,176.533," stroke="#000000" stroke-width="1.000000px" />
			<path fill="none" d=" M340,90 L180,177.843" stroke="#000000" stroke-width="1.000000px" />
		</g>
		<g>
			<polygon points="463.913,176.364,459.096,174.53,460.526,172.479," stroke="#000000" stroke-width="1.000000px" />
			<path fill="none" d=" M340,90 L463.913,176.364" stroke="#000000" stroke-width="1.000000px" />
		</g>
		<g>
			<polygon points="340,80,338.75,75,341.25,75," stroke="#000000" stroke-width="1.000000px" />
			<path fill="none" d=" M340,40 L340,75" stroke="#000000" stroke-width="1.000000px" />
		</g>
		<g>
			<polygon points="330,839.333,324.893,838.637,325.822,836.316," stroke="#000000" stroke-width="1.000000px" />
			<path fill="none" d=" M40,533.333 L40,606.667 M40,606.667 L40,723.333 M40,723.333 L330,839.333" stroke="#000000" stroke-width="1.000000px" />
		</g>
		<g>
			<polygon points="440,463.333,438.75,458.333,441.25,458.333," stroke="#000000" stroke-width="1.000000px" />
			<path fill="none" d=" M440,400 L440,458.333" stroke="#000000" stroke-width="1.000000px" />
		</g>
		<g>
			<polygon points="230,600.556,225.082,599.015,226.385,596.882," stroke="#000000" stroke-width="1.000000px" />
			<path fill="none" d=" M160,293.333 L120,346.667 M120,346.667 L120,533.333 M120,533.333 L230,600.556" stroke="#000000" stroke-width="1.000000px" />
		</g>
		<g>
			<polygon points="167.5,390,169.5,385.25,171.5,386.75," stroke="#000000" stroke-width="1.000000px" />
			<path fill="none" d=" M160,293.333 L200,346.667 M200,346.667 L167.5,390" stroke="#000000" stroke-width="1.000000px" />
		</g>
		<g>
			<polygon points="156,283.333,152.982,279.155,155.304,278.227," stroke="#000000" stroke-width="1.000000px" />
			<path fill="none" d=" M140,243.333 L156,283.333" stroke="#000000" stroke-width="1.000000px" />
		</g>
		<g>
			<polygon points="340,853.333,338.75,858.333,341.25,858.333," stroke="#000000" stroke-width="1.000000px" />
			<path fill="none" d=" M360,943.333 L340,893.333 M340,893.333 L340,858.333" stroke="#000000" stroke-width="1.000000px" />
		</g>
		<g>
			<polygon points="536.667,523.333,533.9,518.985,536.271,518.195," stroke="#000000" stroke-width="1.000000px" />
			<path fill="none" d=" M520,473.333 L536.667,523.333" stroke="#000000" stroke-width="1.000000px" />
		</g>
		<g>
			<polygon points="364,933.333,364.696,928.227,367.018,929.155," stroke="#000000" stroke-width="1.000000px" />
			<path fill="none" d=" M340,843.333 L380,893.333 M380,893.333 L364,933.333" stroke="#000000" stroke-width="1.000000px" />
		</g>
		<g>
			<polygon points="308,883.333,310.147,878.648,312.1,880.21," stroke="#000000" stroke-width="1.000000px" />
			<path fill="none" d=" M340,843.333 L308,883.333" stroke="#000000" stroke-width="1.000000px" />
		</g>
		<g>
			<polygon points="476,283.333,472.982,279.155,475.304,278.227," stroke="#000000" stroke-width="1.000000px" />
			<path fill="none" d=" M460,243.333 L476,283.333" stroke="#000000" stroke-width="1.000000px" />
		</g>
		<g>
			<polygon points="444,283.333,444.696,278.227,447.018,279.155," stroke="#000000" stroke-width="1.000000px" />
			<path fill="none" d=" M460,243.333 L444,283.333" stroke="#000000" stroke-width="1.000000px" />
		</g>
	</g>
	<g>
		<rect x="290" y="596.66666666666663" width="20" height="20" fill="#FFFFFF" stroke-width="1.000000px" stroke="#000000" />
		<text x="300" y="606.66666666666663" text-anchor="middle" dominant-baseline="middle" font-family="Arial" font-size="10" fill="#000000">⟨α, β, γ⟩-drawings</text>
	</g>
	<g>
		<rect x="390" y="233.33333333333331" width="20" height="20" fill="#FFFFFF" stroke-width="1.000000px" stroke="#000000" />
		<text x="400" y="243.33333333333331" text-anchor="middle" dominant-baseline="middle" font-family="Arial" font-size="10" fill="#000000">Radial Level Planarity</text>
	</g>
	<g>
		<rect x="190" y="389.99999999999994" width="20" height="20" fill="#FFFFFF" stroke-width="1.000000px" stroke="#000000" />
		<text x="200" y="399.99999999999994" text-anchor="middle" dominant-baseline="middle" font-family="Arial" font-size="10" fill="#000000">(Embedded) Strip Planarity</text>
	</g>
	<g>
		<rect x="430" y="463.33333333333326" width="20" height="20" fill="#FFFFFF" stroke-width="1.000000px" stroke="#000000" />
		<text x="440" y="473.33333333333326" text-anchor="middle" dominant-baseline="middle" font-family="Arial" font-size="10" fill="#000000">Partitioned 𝒯-coherent 3-page Book Embedding</text>
	</g>
	<g>
		<rect x="270" y="523.33333333333326" width="20" height="20" fill="#FFFFFF" stroke-width="1.000000px" stroke="#000000" />
		<text x="280" y="533.33333333333326" text-anchor="middle" dominant-baseline="middle" font-family="Arial" font-size="10" fill="#000000">Clustered Planarity</text>
	</g>
	<g>
		<rect x="430" y="283.33333333333331" width="20" height="20" fill="#FFFFFF" stroke-width="1.000000px" stroke="#000000" />
		<text x="440" y="293.33333333333331" text-anchor="middle" dominant-baseline="middle" font-family="Arial" font-size="10" fill="#000000">Proper 𝒯-level Planarity</text>
	</g>
	<g>
		<rect x="160" y="173.33333333333331" width="20" height="20" fill="#FFFFFF" stroke-width="1.000000px" stroke="#000000" />
		<text x="170" y="183.33333333333331" text-anchor="middle" dominant-baseline="middle" font-family="Arial" font-size="10" fill="#000000">Partial Rotation Planarity</text>
	</g>
	<g>
		<rect x="590" y="30" width="20" height="20" fill="#FFFFFF" stroke-width="1.000000px" stroke="#000000" />
		<text x="600" y="40" text-anchor="middle" dominant-baseline="middle" font-family="Arial" font-size="10" fill="#000000">Book?</text>
	</g>
	<g>
		<rect x="330" y="173.33333333333331" width="20" height="20" fill="#FFFFFF" stroke-width="1.000000px" stroke="#000000" />
		<text x="340" y="183.33333333333331" text-anchor="middle" dominant-baseline="middle" font-family="Arial" font-size="10" fill="#000000">Partitioned 2-page Book Embedding</text>
	</g>
	<g>
		<rect x="70" y="523.33333333333326" width="20" height="20" fill="#FFFFFF" stroke-width="1.000000px" stroke="#000000" />
		<text x="80" y="533.33333333333326" text-anchor="middle" dominant-baseline="middle" font-family="Arial" font-size="10" fill="#000000">Row-Column-Independent NodeTrix Planarity</text>
	</g>
	<g>
		<rect x="530" y="523.33333333333326" width="20" height="20" fill="#FFFFFF" stroke-width="1.000000px" stroke="#000000" />
		<text x="540" y="533.33333333333326" text-anchor="middle" dominant-baseline="middle" font-family="Arial" font-size="10" fill="#000000">Streamed Backbone Planarity</text>
	</g>
	<g>
		<rect x="230" y="713.33333333333326" width="20" height="20" fill="#FFFFFF" stroke-width="1.000000px" stroke="#000000" />
		<text x="240" y="723.33333333333326" text-anchor="middle" dominant-baseline="middle" font-family="Arial" font-size="10" fill="#000000">MaxSEFE</text>
	</g>
	<g>
		<rect x="330" y="463.33333333333326" width="20" height="20" fill="#FFFFFF" stroke-width="1.000000px" stroke="#000000" />
		<text x="340" y="473.33333333333326" text-anchor="middle" dominant-baseline="middle" font-family="Arial" font-size="10" fill="#000000">Connected SEFE-2</text>
	</g>
	<g>
		<rect x="463.91304347826087" y="173.33333333333331" width="20" height="20" fill="#FFFFFF" stroke-width="1.000000px" stroke="#000000" />
		<text x="473.91304347826087" y="183.33333333333331" text-anchor="middle" dominant-baseline="middle" font-family="Arial" font-size="10" fill="#000000">Partial Planarity</text>
	</g>
	<g>
		<rect x="150" y="389.99999999999994" width="20" height="20" fill="#FFFFFF" stroke-width="1.000000px" stroke="#000000" />
		<text x="160" y="399.99999999999994" text-anchor="middle" dominant-baseline="middle" font-family="Arial" font-size="10" fill="#000000">Partially PQ-constrained Planarity</text>
	</g>
	<g>
		<rect x="220" y="173.33333333333331" width="20" height="20" fill="#FFFFFF" stroke-width="1.000000px" stroke="#000000" />
		<text x="230" y="183.33333333333331" text-anchor="middle" dominant-baseline="middle" font-family="Arial" font-size="10" fill="#000000">ec-Planarity</text>
	</g>
	<g>
		<rect x="270" y="463.33333333333326" width="20" height="20" fill="#FFFFFF" stroke-width="1.000000px" stroke="#000000" />
		<text x="280" y="473.33333333333326" text-anchor="middle" dominant-baseline="middle" font-family="Arial" font-size="10" fill="#000000">Strip Planarity</text>
	</g>
	<g>
		<rect x="230" y="646.66666666666663" width="20" height="20" fill="#FFFFFF" stroke-width="1.000000px" stroke="#000000" />
		<text x="240" y="656.66666666666663" text-anchor="middle" dominant-baseline="middle" font-family="Arial" font-size="10" fill="#000000">SEFE-2</text>
	</g>
	<g>
		<rect x="330" y="336.66666666666663" width="20" height="20" fill="#FFFFFF" stroke-width="1.000000px" stroke="#000000" />
		<text x="340" y="346.66666666666663" text-anchor="middle" dominant-baseline="middle" font-family="Arial" font-size="10" fill="#000000">Partitioned 𝒯-coherent 2-page Book Embedding</text>
	</g>
	<g>
		<rect x="170" y="596.66666666666663" width="20" height="20" fill="#FFFFFF" stroke-width="1.000000px" stroke="#000000" />
		<text x="180" y="606.66666666666663" text-anchor="middle" dominant-baseline="middle" font-family="Arial" font-size="10" fill="#000000">NodeTrix Planarity</text>
	</g>
	<g>
		<rect x="470" y="283.33333333333331" width="20" height="20" fill="#FFFFFF" stroke-width="1.000000px" stroke="#000000" />
		<text x="480" y="293.33333333333331" text-anchor="middle" dominant-baseline="middle" font-family="Arial" font-size="10" fill="#000000">Clustered Level Planarity</text>
	</g>
	<g>
		<rect x="230" y="596.66666666666663" width="20" height="20" fill="#FFFFFF" stroke-width="1.000000px" stroke="#000000" />
		<text x="240" y="606.66666666666663" text-anchor="middle" dominant-baseline="middle" font-family="Arial" font-size="10" fill="#000000">Synchronized Planarity</text>
	</g>
	<g>
		<rect x="390" y="173.33333333333331" width="20" height="20" fill="#FFFFFF" stroke-width="1.000000px" stroke="#000000" />
		<text x="400" y="183.33333333333331" text-anchor="middle" dominant-baseline="middle" font-family="Arial" font-size="10" fill="#000000">Level Planarity</text>
	</g>
	<g>
		<rect x="230" y="233.33333333333331" width="20" height="20" fill="#FFFFFF" stroke-width="1.000000px" stroke="#000000" />
		<text x="240" y="243.33333333333331" text-anchor="middle" dominant-baseline="middle" font-family="Arial" font-size="10" fill="#000000">Partially Embedded Planarity</text>
	</g>
	<g>
		<rect x="330" y="713.33333333333326" width="20" height="20" fill="#FFFFFF" stroke-width="1.000000px" stroke="#000000" />
		<text x="340" y="723.33333333333326" text-anchor="middle" dominant-baseline="middle" font-family="Arial" font-size="10" fill="#000000">SEFE-3</text>
	</g>
	<g>
		<rect x="290" y="883.33333333333326" width="20" height="20" fill="#FFFFFF" stroke-width="1.000000px" stroke="#000000" />
		<text x="300" y="893.33333333333326" text-anchor="middle" dominant-baseline="middle" font-family="Arial" font-size="10" fill="#000000">Hierarchical Planarity</text>
	</g>
	<g>
		<rect x="30" y="463.33333333333326" width="20" height="20" fill="#FFFFFF" stroke-width="1.000000px" stroke="#000000" />
		<text x="40" y="473.33333333333326" text-anchor="middle" dominant-baseline="middle" font-family="Arial" font-size="10" fill="#000000">(Embedded) Upward Planarity</text>
	</g>
	<g>
		<rect x="330" y="80" width="20" height="20" fill="#FFFFFF" stroke-width="1.000000px" stroke="#000000" />
		<text x="340" y="90" text-anchor="middle" dominant-baseline="middle" font-family="Arial" font-size="10" fill="#000000">(Standard) Planarity</text>
	</g>
	<g>
		<rect x="330" y="30" width="20" height="20" fill="#FFFFFF" stroke-width="1.000000px" stroke="#000000" />
		<text x="340" y="40" text-anchor="middle" dominant-baseline="middle" font-family="Arial" font-size="10" fill="#000000">Outer Planarity</text>
	</g>
	<g>
		<rect x="30" y="523.33333333333326" width="20" height="20" fill="#FFFFFF" stroke-width="1.000000px" stroke="#000000" />
		<text x="40" y="533.33333333333326" text-anchor="middle" dominant-baseline="middle" font-family="Arial" font-size="10" fill="#000000">Upward Planarity</text>
	</g>
	<g>
		<rect x="430" y="389.99999999999994" width="20" height="20" fill="#FFFFFF" stroke-width="1.000000px" stroke="#000000" />
		<text x="440" y="399.99999999999994" text-anchor="middle" dominant-baseline="middle" font-family="Arial" font-size="10" fill="#000000">Partitioned 3-Page Book Embedding</text>
	</g>
	<g>
		<rect x="150" y="283.33333333333331" width="20" height="20" fill="#FFFFFF" stroke-width="1.000000px" stroke="#000000" />
		<text x="160" y="293.33333333333331" text-anchor="middle" dominant-baseline="middle" font-family="Arial" font-size="10" fill="#000000">ec-Planarity with free edges</text>
	</g>
	<g>
		<rect x="130" y="233.33333333333331" width="20" height="20" fill="#FFFFFF" stroke-width="1.000000px" stroke="#000000" />
		<text x="140" y="243.33333333333331" text-anchor="middle" dominant-baseline="middle" font-family="Arial" font-size="10" fill="#000000">Partial Rotation Planarity with flips</text>
	</g>
	<g>
		<rect x="350" y="933.33333333333326" width="20" height="20" fill="#FFFFFF" stroke-width="1.000000px" stroke="#000000" />
		<text x="360" y="943.33333333333326" text-anchor="middle" dominant-baseline="middle" font-family="Arial" font-size="10" fill="#000000">Weak Realizability</text>
	</g>
	<g>
		<rect x="510" y="463.33333333333326" width="20" height="20" fill="#FFFFFF" stroke-width="1.000000px" stroke="#000000" />
		<text x="520" y="473.33333333333326" text-anchor="middle" dominant-baseline="middle" font-family="Arial" font-size="10" fill="#000000">Streamed Planarity</text>
	</g>
	<g>
		<rect x="330" y="833.33333333333326" width="20" height="20" fill="#FFFFFF" stroke-width="1.000000px" stroke="#000000" />
		<text x="340" y="843.33333333333326" text-anchor="middle" dominant-baseline="middle" font-family="Arial" font-size="10" fill="#000000">Simultaneous Embedding with Fixed Edges</text>
	</g>
	<g>
		<rect x="450" y="233.33333333333331" width="20" height="20" fill="#FFFFFF" stroke-width="1.000000px" stroke="#000000" />
		<text x="460" y="243.33333333333331" text-anchor="middle" dominant-baseline="middle" font-family="Arial" font-size="10" fill="#000000">Proper Clustered Level Planarity</text>
	</g>
	<g>
		<rect x="430" y="336.66666666666663" width="20" height="20" fill="#FFFFFF" stroke-width="1.000000px" stroke="#000000" />
		<text x="440" y="346.66666666666663" text-anchor="middle" dominant-baseline="middle" font-family="Arial" font-size="10" fill="#000000">𝒯-level Planarity</text>
	</g>
</svg>
