<?xml version="1.0" encoding="UTF-8" standalone="no"?>
<svg
   width="41pt"
   height="40pt"
   viewBox="0 0 41 40"
   version="1.1"
   id="svg14"
   sodipodi:docname="logo-large-faded.svg"
   inkscape:version="1.3 (0e150ed6c4, 2023-07-21)"
   xmlns:inkscape="http://www.inkscape.org/namespaces/inkscape"
   xmlns:sodipodi="http://sodipodi.sourceforge.net/DTD/sodipodi-0.dtd"
   xmlns="http://www.w3.org/2000/svg"
   xmlns:svg="http://www.w3.org/2000/svg">
  <defs
     id="defs14" />
  <sodipodi:namedview
     id="namedview14"
     pagecolor="#ffffff"
     bordercolor="#666666"
     borderopacity="1.0"
     inkscape:showpageshadow="2"
     inkscape:pageopacity="0.0"
     inkscape:pagecheckerboard="0"
     inkscape:deskcolor="#d1d1d1"
     inkscape:document-units="pt"
     inkscape:zoom="16.48125"
     inkscape:cx="27.516117"
     inkscape:cy="16.89799"
     inkscape:window-width="1920"
     inkscape:window-height="1043"
     inkscape:window-x="0"
     inkscape:window-y="0"
     inkscape:window-maximized="1"
     inkscape:current-layer="svg14" />
  <path
     style="color:#000000;opacity:0.5;fill:rgb(89.8%,19.2%,22%);stroke-linejoin:round;stroke-miterlimit:10;stroke-dasharray:2;-inkscape-stroke:none"
     d="m 1,14.654297 v 0.800781 h 2 v -0.800781 z"
     id="path1"
     sodipodi:nodetypes="ccccc" />
  <path
     style="color:#000000;opacity:0.5;fill:rgb(89.8%,19.2%,22%);stroke-linejoin:round;stroke-miterlimit:10;stroke-dasharray:2;-inkscape-stroke:none"
     d="m 39,14.654297 v 0.800781 h 2 v -0.800781 z"
     id="path2"
     sodipodi:nodetypes="ccccc" />
  <path
     id="path18"
     style="color:#000000;opacity:0.5;fill:#005e38;fill-opacity:0.3;fill-rule:evenodd;stroke-linejoin:round;stroke-miterlimit:10;-inkscape-stroke:none"
     d="M 21 29.131348 C 18.257338 29.131348 15.514564 29.311379 13.483887 29.671875 C 13.333226 29.698615 13.194708 29.728176 13.051758 29.756836 L 13.192383 29.320313 L 12.524414 31.378418 C 12.932792 31.604088 13.253559 31.991832 13.35791 32.544434 L 28.64209 32.544434 C 28.746441 31.991832 29.067208 31.604088 29.475586 31.378418 L 28.807617 29.320313 L 28.948242 29.756836 C 28.805413 29.728236 28.666629 29.698575 28.516113 29.671875 C 26.485436 29.311379 23.742662 29.131348 21 29.131348 z M 30.975586 29.879883 L 30.852539 30.260742 L 30.977051 29.879883 C 30.97663 29.879737 30.976007 29.880029 30.975586 29.879883 z M 30.852539 30.260742 C 30.547975 30.155007 30.220224 30.054099 29.856445 29.960449 L 30.243164 31.149902 C 30.349799 31.14136 30.457323 31.141439 30.563965 31.149902 L 30.852539 30.260742 z M 12.143555 29.961914 C 11.778545 30.056017 11.448386 30.155913 11.143066 30.262207 L 11.431641 31.149902 C 11.539732 31.141084 11.648731 31.141243 11.756836 31.149902 L 12.143555 29.961914 z M 31.601074 30.553711 L 31.333008 31.378418 C 31.833888 31.655207 32.203125 32.177196 32.203125 32.945801 C 32.203125 35.201999 29.021138 35.334309 28.643555 33.345703 L 13.356445 33.345703 C 13.304542 33.619058 13.200004 33.852754 13.057617 34.045898 C 14.252248 35.315116 15.542226 36.285547 16.880859 37.016602 C 16.884667 37.016877 16.888769 37.016327 16.892578 37.016602 C 16.625191 36.870193 16.359086 36.716394 16.095703 36.550781 C 20.091536 36.910003 25.233622 36.798055 28.516113 36.215332 C 30.548728 35.856746 31.874013 35.317845 32.660156 34.73291 C 33.446299 34.147977 33.70459 33.552713 33.70459 32.945801 C 33.70459 32.336605 33.446299 31.740694 32.660156 31.155762 C 32.379489 30.946929 32.026895 30.744787 31.601074 30.553711 z M 10.395996 30.556641 C 9.9734576 30.746881 9.6233398 30.947977 9.3442383 31.155762 C 8.5585587 31.740681 8.2983398 32.336604 8.2983398 32.945801 C 8.2983398 33.552714 8.5585588 34.147989 9.3442383 34.73291 C 10.129917 35.317832 11.453248 35.856757 13.483887 36.215332 C 13.779141 36.267747 14.093831 36.314097 14.416992 36.358887 C 14.643183 36.533349 14.873056 36.696083 15.104004 36.852539 C 15.107033 36.852889 15.109763 36.853654 15.112793 36.854004 C 14.183836 36.214056 13.284266 35.461781 12.436523 34.557129 C 11.370756 35.069263 9.796875 34.532163 9.796875 32.945801 C 9.796875 32.178659 10.164638 31.657079 10.664063 31.379883 L 10.395996 30.556641 z " />
  <path
     id="path19"
     style="color:#000000;opacity:0.5;fill:#005e38;fill-rule:evenodd;stroke-linejoin:round;stroke-miterlimit:10;-inkscape-stroke:none"
     d="m 21,28.322754 c -2.774904,0 -5.550705,0.185698 -7.656738,0.55957 -0.003,5.38e-4 -0.0058,9.26e-4 -0.0088,0.0015 l -0.282715,0.873047 c 0.14295,-0.02866 0.281468,-0.05822 0.432129,-0.08496 2.030679,-0.360496 4.773448,-0.540527 7.516113,-0.540527 2.742665,0 5.485434,0.180031 7.516113,0.540527 0.150516,0.0267 0.2893,0.05636 0.432129,0.08496 l -0.282715,-0.873047 c -0.003,-5.39e-4 -0.0058,-9.27e-4 -0.0088,-0.0015 C 26.550705,28.508452 23.774904,28.322754 21,28.322754 Z m -8.566406,0.744141 c -0.569662,0.128384 -1.078962,0.274478 -1.538086,0.433593 l 0.247558,0.761719 c 0.30532,-0.106294 0.635479,-0.20619 1.000489,-0.300293 z m 17.132812,0 0.290039,0.893554 c 0.363779,0.09365 0.69153,0.194558 0.996094,0.300293 l 0.247559,-0.763183 C 30.64232,29.339245 30.134053,29.194728 29.566406,29.066895 Z m 2.283692,0.719238 -0.249024,0.767578 c 0.425821,0.191076 0.778414,0.393218 1.059082,0.602051 0.786144,0.584933 1.044434,1.180843 1.044434,1.790039 0,0.606913 -0.25829,1.202175 -1.044434,1.787109 -0.786144,0.584935 -2.111426,1.123836 -4.144043,1.482422 -3.282495,0.582724 -8.424573,0.694671 -12.42041,0.335449 0.561812,0.353261 1.133014,0.662838 1.712402,0.928711 3.712566,0.201526 7.924893,0.04296 10.848633,-0.476074 2.107995,-0.371883 3.54103,-0.932104 4.479492,-1.630371 0.938463,-0.698268 1.369629,-1.569311 1.369629,-2.427246 0,-0.85955 -0.431166,-1.73191 -1.369629,-2.430176 -0.354505,-0.263771 -0.780562,-0.507638 -1.286132,-0.729492 z m -21.703125,0.0015 c -0.5036867,0.221374 -0.928382,0.464961 -1.2817386,0.728027 -0.9379462,0.698279 -1.3666992,1.570627 -1.3666992,2.430176 0,0.857934 0.4287529,1.728966 1.3666992,2.427246 0.9379462,0.69828 2.3719576,1.258477 4.4780276,1.630371 0.760066,0.134931 1.6093,0.246285 2.512207,0.33252 -0.486801,-0.296583 -0.968606,-0.614636 -1.438477,-0.977051 -0.323162,-0.04479 -0.63785,-0.09114 -0.933105,-0.143555 -2.030641,-0.358575 -3.353969,-0.8975 -4.1396487,-1.482422 C 8.558558,34.148023 8.2983398,33.55275 8.2983398,32.945836 c 0,-0.609197 0.2602181,-1.205119 1.0458985,-1.790039 0.2791018,-0.207785 0.6292188,-0.40888 1.0517577,-0.599121 z" />
  <path
     id="path4"
     style="color:#000000;fill:rgb(89.8%,19.2%,22%);stroke-linejoin:round;stroke-miterlimit:10;stroke-dasharray:2;-inkscape-stroke:none;opacity:0.5"
     d="M 7.5439453 14.654297 C 7.568033 14.779281 7.5820313 14.912084 7.5820313 15.054199 C 7.5820313 15.197511 7.5651491 15.329393 7.5410156 15.455566 L 7.78125 15.455566 L 7.78125 14.654297 L 7.5439453 14.654297 z M 9.7807617 14.654297 L 9.7807617 15.455566 L 11.781738 15.455566 L 11.781738 14.654297 L 9.7807617 14.654297 z M 13.78125 14.654297 L 13.78125 15.455566 L 15.780762 15.455566 L 15.780762 14.654297 L 13.78125 14.654297 z M 17.958984 14.654297 L 17.781738 15.199219 L 17.781738 15.455566 L 19.78125 15.455566 L 19.78125 14.654297 L 17.958984 14.654297 z M 21.780762 14.654297 L 21.780762 15.455566 L 23.781738 15.455566 L 23.781738 14.654297 L 21.780762 14.654297 z M 25.78125 14.654297 L 25.78125 15.455566 L 27.780762 15.455566 L 27.780762 14.654297 L 25.78125 14.654297 z M 29.781738 14.654297 L 29.781738 15.455566 L 31.78125 15.455566 L 31.78125 14.654297 L 29.781738 14.654297 z M 33.780762 14.654297 L 33.780762 15.455566 L 34.458984 15.455566 C 34.434858 15.329394 34.417969 15.197502 34.417969 15.054199 C 34.417969 14.912191 34.432075 14.779229 34.456055 14.654297 L 33.780762 14.654297 z " />
  <path
     id="path9"
     style="fill:#000000;fill-opacity:1;fill-rule:evenodd;stroke:none;opacity:0.5"
     d="M 21 2.2016602 C 20.099611 2.2016602 19.199707 2.8012717 19.199707 4.0004883 C 19.199707 4.271777 19.245416 4.511274 19.327148 4.7211914 L 17.869629 5.7802734 C 18.000176 6.0131937 18.155781 6.2311752 18.333984 6.4306641 L 19.790039 5.3730469 C 19.877082 5.4469347 19.970559 5.5117531 20.069824 5.5664063 L 19.510254 7.2890625 C 19.748616 7.3951408 20.003416 7.4770171 20.274902 7.5292969 L 20.838867 5.7919922 C 20.946109 5.8005594 21.053891 5.8005594 21.161133 5.7919922 L 21.725098 7.5292969 C 21.996584 7.4770171 22.251384 7.3951408 22.489746 7.2890625 L 21.930176 5.5664063 C 22.029441 5.5117531 22.122918 5.4469347 22.209961 5.3730469 L 23.666016 6.4306641 C 23.844219 6.2311752 23.999824 6.0131937 24.130371 5.7802734 L 22.672852 4.7211914 C 22.754584 4.511274 22.800293 4.271777 22.800293 4.0004883 C 22.800293 2.8012717 21.900389 2.2016602 21 2.2016602 z M 17.220703 6.2519531 L 6.9916992 13.681641 C 5.9711601 12.814393 3.984375 13.271567 3.984375 15.054199 C 3.984375 16.327158 4.9945739 16.926178 5.9443359 16.850098 L 10.664063 31.379883 C 10.164638 31.657079 9.796875 32.178657 9.796875 32.945801 C 9.796875 34.532167 11.370752 35.069265 12.436523 34.557129 C 14.972963 37.263846 17.950056 38.71154 20.90625 39.344238 C 24.326585 40.076276 27.717556 39.734542 30.429199 39.057129 C 35.85623 37.698382 38.683871 34.884578 40.050293 30.449707 C 41.292381 26.410186 41.388592 20.917883 37.688965 16.144043 C 37.890843 15.86367 38.015625 15.5001 38.015625 15.054199 C 38.015625 13.270648 36.026903 12.814046 35.006836 13.683105 L 24.779297 6.2519531 C 24.643633 6.4808033 24.486014 6.6970283 24.310547 6.8994141 L 34.54541 14.336426 C 34.464503 14.545624 34.417969 14.784222 34.417969 15.054199 C 34.417969 15.821343 34.785732 16.342921 35.285156 16.620117 L 30.563965 31.149902 C 30.457323 31.141439 30.349799 31.14136 30.243164 31.149902 L 22.737305 8.0507813 C 22.495266 8.1539884 22.241344 8.2366323 21.974121 8.2954102 L 29.475586 31.378418 C 29.067208 31.604088 28.746441 31.991832 28.64209 32.544434 L 13.35791 32.544434 C 13.253559 31.991832 12.932792 31.604088 12.524414 31.378418 L 20.025879 8.2954102 C 19.758656 8.2366323 19.504734 8.1539884 19.262695 8.0507813 L 11.756836 31.149902 C 11.648731 31.141243 11.539732 31.141084 11.431641 31.149902 L 6.7119141 16.621582 C 7.2127967 16.344793 7.5820313 15.822806 7.5820313 15.054199 C 7.5820313 14.78291 7.5347694 14.543414 7.453125 14.333496 L 17.689453 6.8994141 C 17.513986 6.6970283 17.356367 6.4808032 17.220703 6.2519531 z M 37.078125 16.658203 C 40.585035 21.196168 40.470065 26.363356 39.285645 30.215332 C 37.980194 34.452316 35.479194 36.96617 30.234375 38.279297 C 27.614006 38.933908 24.338923 39.25917 21.074707 38.560547 C 18.267093 37.959647 15.468941 36.607773 13.057617 34.045898 C 13.200004 33.852752 13.304542 33.619058 13.356445 33.345703 L 28.643555 33.345703 C 29.02114 35.334313 32.203125 35.202003 32.203125 32.945801 C 32.203125 32.177194 31.83389 31.655207 31.333008 31.378418 L 36.052734 16.850098 C 36.404274 16.878777 36.764041 16.814391 37.078125 16.658203 z " />
  <g
     id="g14" />
  <path
     id="path13"
     style="color:#000000;fill:#f09400;stroke-linejoin:round;stroke-miterlimit:10;-inkscape-stroke:none;opacity:0.5"
     d="M 23.81543 0.77050781 C 23.54512 0.77808207 23.330543 1.0723219 23.471191 1.3520508 C 23.879291 2.1682399 23.963524 3.1056899 23.707031 3.9770508 C 23.610611 4.3027824 23.938911 4.5928634 24.250488 4.4575195 L 24.591797 4.3095703 C 24.556312 4.6760243 24.467806 5.0367076 24.32666 5.3774414 C 23.805736 6.6349804 22.619989 7.5996094 21 7.5996094 C 19.380011 7.5996094 18.194265 6.6349806 17.67334 5.3774414 C 17.152414 4.1199022 17.309818 2.6003384 18.455566 1.4545898 L 17.888672 0.88916016 C 16.514895 2.2629366 16.302663 4.1569612 16.935059 5.6835938 C 17.567453 7.2102264 19.057497 8.4008789 21 8.4008789 C 22.942503 8.4008789 24.432548 7.2102267 25.064941 5.6835938 C 25.289714 5.1409808 25.404638 4.552204 25.401855 3.956543 L 25.949707 3.7192383 C 26.14517 3.6342339 26.23868 3.4104132 26.163574 3.2109375 C 25.772842 2.167554 25.003633 1.3126017 24.007324 0.81445313 C 23.942771 0.78199588 23.877809 0.76875991 23.81543 0.77050781 z " />
  <g
     id="path14"
     style="opacity:0.5" />
</svg>
