<?xml version="1.0" encoding="UTF-8"?>
<svg xmlns="http://www.w3.org/2000/svg" xmlns:xlink="http://www.w3.org/1999/xlink" width="43pt" height="43pt" viewBox="0 0 43 43" version="1.1">
<g id="surface414">
<path style="fill:none;stroke-width:2;stroke-linecap:butt;stroke-linejoin:round;stroke:rgb(89.8%,19.2%,22%);stroke-opacity:1;stroke-dasharray:1,3;stroke-miterlimit:10;" d="M 236 708.945312 L 240.78125 708.945312 " transform="matrix(1,0,0,-1,-235,726)"/>
<path style="fill:none;stroke-width:2;stroke-linecap:butt;stroke-linejoin:round;stroke:rgb(89.8%,19.2%,22%);stroke-opacity:1;stroke-dasharray:1,3;stroke-miterlimit:10;" d="M 276 708.945312 L 271.21875 708.945312 " transform="matrix(1,0,0,-1,-235,726)"/>
<path style="fill-rule:evenodd;fill:rgb(0%,37.6%,22.4%);fill-opacity:0.3;stroke-width:2;stroke-linecap:butt;stroke-linejoin:round;stroke:rgb(0%,37.6%,22.4%);stroke-opacity:1;stroke-miterlimit:10;" d="M 240.144531 691.054688 C 240.144531 692.832031 241.8125 694.605469 246.820312 695.492188 C 251.828125 696.378906 260.171875 696.378906 265.179688 695.492188 C 270.1875 694.605469 271.855469 692.832031 271.855469 691.054688 C 271.855469 689.28125 270.1875 687.507812 265.179688 686.621094 C 260.171875 685.730469 251.828125 685.730469 246.820312 686.621094 C 241.8125 687.507812 240.144531 689.28125 240.144531 691.054688 Z M 240.144531 691.054688 " transform="matrix(1,0,0,-1,-235,726)"/>
<path style="fill:none;stroke-width:2;stroke-linecap:butt;stroke-linejoin:round;stroke:rgb(89.8%,19.2%,22%);stroke-opacity:1;stroke-dasharray:1,3;stroke-miterlimit:10;" d="M 240.78125 708.945312 L 271.21875 708.945312 " transform="matrix(1,0,0,-1,-235,726)"/>
<path style="fill:none;stroke-width:2;stroke-linecap:butt;stroke-linejoin:round;stroke:rgb(100%,100%,100%);stroke-opacity:1;stroke-miterlimit:10;" d="M 271.214844 708.945312 L 256 720 L 240.78125 708.945312 L 246.59375 691.054688 L 265.402344 691.054688 Z M 271.214844 708.945312 " transform="matrix(1,0,0,-1,-235,726)"/>
<path style=" stroke:none;fill-rule:evenodd;fill:rgb(100%,100%,100%);fill-opacity:1;" d="M 24 6 C 24 2 18 2 18 6 C 18 10 24 10 24 6 Z M 24 6 "/>
<path style=" stroke:none;fill-rule:evenodd;fill:rgb(100%,100%,100%);fill-opacity:1;" d="M 8.78125 17.054688 C 8.78125 13.054688 2.78125 13.054688 2.78125 17.054688 C 2.78125 21.054688 8.78125 21.054688 8.78125 17.054688 Z M 8.78125 17.054688 "/>
<path style=" stroke:none;fill-rule:evenodd;fill:rgb(100%,100%,100%);fill-opacity:1;" d="M 39.21875 17.054688 C 39.21875 13.054688 33.21875 13.054688 33.21875 17.054688 C 33.21875 21.054688 39.21875 21.054688 39.21875 17.054688 Z M 39.21875 17.054688 "/>
<path style=" stroke:none;fill-rule:evenodd;fill:rgb(100%,100%,100%);fill-opacity:1;" d="M 33.40625 34.945312 C 33.40625 30.945312 27.40625 30.945312 27.40625 34.945312 C 27.40625 38.945312 33.40625 38.945312 33.40625 34.945312 Z M 33.40625 34.945312 "/>
<path style=" stroke:none;fill-rule:evenodd;fill:rgb(100%,100%,100%);fill-opacity:1;" d="M 14.59375 34.945312 C 14.59375 30.945312 8.59375 30.945312 8.59375 34.945312 C 8.59375 38.945312 14.59375 38.945312 14.59375 34.945312 Z M 14.59375 34.945312 "/>
<path style="fill:none;stroke-width:2;stroke-linecap:butt;stroke-linejoin:round;stroke:rgb(100%,100%,100%);stroke-opacity:1;stroke-miterlimit:10;" d="M 246.59375 691.054688 L 256 720 L 265.40625 691.054688 " transform="matrix(1,0,0,-1,-235,726)"/>
<path style="fill:none;stroke-width:2;stroke-linecap:butt;stroke-linejoin:round;stroke:rgb(100%,100%,100%);stroke-opacity:1;stroke-miterlimit:10;" d="M 246.59375 691.054688 C 252 684 260 684 265.332031 685.332031 C 270.667969 686.667969 273.332031 689.332031 274.667969 693.667969 C 276 698 276 704 271.21875 708.945312 " transform="matrix(1,0,0,-1,-235,726)"/>
<path style="fill:none;stroke-width:2;stroke-linecap:butt;stroke-linejoin:round;stroke:rgb(94.9%,58%,0%);stroke-opacity:1;stroke-miterlimit:10;" d="M 251.925781 724.074219 C 250.28125 722.425781 249.785156 719.949219 250.679688 717.796875 C 251.570312 715.644531 253.671875 714.238281 256 714.238281 C 258.328125 714.238281 260.429688 715.644531 261.320312 717.796875 C 262.214844 719.949219 261.71875 722.425781 260.074219 724.074219 " transform="matrix(1,0,0,-1,-235,726)"/>
<path style="fill-rule:evenodd;fill:rgb(94.9%,58%,0%);fill-opacity:1;stroke-width:2;stroke-linecap:butt;stroke-linejoin:round;stroke:rgb(94.9%,58%,0%);stroke-opacity:1;stroke-miterlimit:10;" d="M 262.296875 722.109375 C 261.738281 722.945312 260.972656 723.625 260.074219 724.074219 C 260.523438 723.171875 260.730469 722.171875 260.671875 721.167969 Z M 262.296875 722.109375 " transform="matrix(1,0,0,-1,-235,726)"/>
</g>
</svg>
