<?xml version="1.0" encoding="UTF-8"?>
<svg xmlns="http://www.w3.org/2000/svg" xmlns:xlink="http://www.w3.org/1999/xlink" width="41pt" height="40pt" viewBox="0 0 41 40" version="1.1">
<g id="surface552">
<path style="fill:none;stroke-width:0.8;stroke-linecap:butt;stroke-linejoin:round;stroke:rgb(89.8%,19.2%,22%);stroke-opacity:1;stroke-dasharray:2;stroke-miterlimit:10;" d="M 236 708.945312 L 240.78125 708.945312 " transform="matrix(1,0,0,-1,-235,724)"/>
<path style="fill:none;stroke-width:0.8;stroke-linecap:butt;stroke-linejoin:round;stroke:rgb(89.8%,19.2%,22%);stroke-opacity:1;stroke-dasharray:2;stroke-miterlimit:10;" d="M 276 708.945312 L 271.21875 708.945312 " transform="matrix(1,0,0,-1,-235,724)"/>
<path style="fill-rule:evenodd;fill:rgb(0%,37.6%,22.4%);fill-opacity:0.3;stroke-width:0.8;stroke-linecap:butt;stroke-linejoin:round;stroke:rgb(0%,37.6%,22.4%);stroke-opacity:1;stroke-miterlimit:10;" d="M 242.898438 691.054688 C 242.898438 692.523438 244.277344 693.988281 248.414062 694.722656 C 252.550781 695.457031 259.449219 695.457031 263.585938 694.722656 C 267.726562 693.988281 269.105469 692.523438 269.105469 691.054688 C 269.105469 689.589844 267.726562 688.121094 263.585938 687.390625 C 259.449219 686.65625 252.550781 686.65625 248.414062 687.390625 C 244.277344 688.121094 242.898438 689.589844 242.898438 691.054688 Z M 242.898438 691.054688 " transform="matrix(1,0,0,-1,-235,724)"/>
<path style="fill:none;stroke-width:0.8;stroke-linecap:butt;stroke-linejoin:round;stroke:rgb(89.8%,19.2%,22%);stroke-opacity:1;stroke-dasharray:2;stroke-miterlimit:10;" d="M 240.78125 708.945312 L 271.21875 708.945312 " transform="matrix(1,0,0,-1,-235,724)"/>
<path style="fill:none;stroke-width:0.8;stroke-linecap:butt;stroke-linejoin:round;stroke:rgb(0%,0%,0%);stroke-opacity:1;stroke-miterlimit:10;" d="M 271.214844 708.945312 L 256 720 L 240.78125 708.945312 L 246.59375 691.054688 L 265.402344 691.054688 Z M 271.214844 708.945312 " transform="matrix(1,0,0,-1,-235,724)"/>
<path style=" stroke:none;fill-rule:evenodd;fill:rgb(0%,0%,0%);fill-opacity:1;" d="M 22.800781 4 C 22.800781 1.601562 19.199219 1.601562 19.199219 4 C 19.199219 6.398438 22.800781 6.398438 22.800781 4 Z M 22.800781 4 "/>
<path style=" stroke:none;fill-rule:evenodd;fill:rgb(0%,0%,0%);fill-opacity:1;" d="M 7.582031 15.054688 C 7.582031 12.65625 3.984375 12.65625 3.984375 15.054688 C 3.984375 17.457031 7.582031 17.457031 7.582031 15.054688 Z M 7.582031 15.054688 "/>
<path style=" stroke:none;fill-rule:evenodd;fill:rgb(0%,0%,0%);fill-opacity:1;" d="M 38.015625 15.054688 C 38.015625 12.65625 34.417969 12.65625 34.417969 15.054688 C 34.417969 17.457031 38.015625 17.457031 38.015625 15.054688 Z M 38.015625 15.054688 "/>
<path style=" stroke:none;fill-rule:evenodd;fill:rgb(0%,0%,0%);fill-opacity:1;" d="M 32.203125 32.945312 C 32.203125 30.542969 28.605469 30.542969 28.605469 32.945312 C 28.605469 35.34375 32.203125 35.34375 32.203125 32.945312 Z M 32.203125 32.945312 "/>
<path style=" stroke:none;fill-rule:evenodd;fill:rgb(0%,0%,0%);fill-opacity:1;" d="M 13.394531 32.945312 C 13.394531 30.542969 9.796875 30.542969 9.796875 32.945312 C 9.796875 35.34375 13.394531 35.34375 13.394531 32.945312 Z M 13.394531 32.945312 "/>
<path style="fill:none;stroke-width:0.8;stroke-linecap:butt;stroke-linejoin:round;stroke:rgb(0%,0%,0%);stroke-opacity:1;stroke-miterlimit:10;" d="M 246.59375 691.054688 L 256 720 L 265.40625 691.054688 " transform="matrix(1,0,0,-1,-235,724)"/>
<path style="fill:none;stroke-width:0.8;stroke-linecap:butt;stroke-linejoin:round;stroke:rgb(0%,0%,0%);stroke-opacity:1;stroke-miterlimit:10;" d="M 246.59375 691.054688 C 252 684 260 684 265.332031 685.332031 C 270.667969 686.667969 273.332031 689.332031 274.667969 693.667969 C 276 698 276 704 271.21875 708.945312 " transform="matrix(1,0,0,-1,-235,724)"/>
<path style="fill:none;stroke-width:0.8;stroke-linecap:butt;stroke-linejoin:round;stroke:rgb(94.9%,58%,0%);stroke-opacity:1;stroke-miterlimit:10;" d="M 253.171875 722.828125 C 250.652344 720.308594 252.4375 716 256 716 C 259.5625 716 261.347656 720.308594 258.828125 722.828125 " transform="matrix(1,0,0,-1,-235,724)"/>
<path style="fill-rule:evenodd;fill:rgb(94.9%,58%,0%);fill-opacity:1;stroke-width:0.8;stroke-linecap:butt;stroke-linejoin:round;stroke:rgb(94.9%,58%,0%);stroke-opacity:1;stroke-miterlimit:10;" d="M 260.789062 720.648438 C 260.433594 721.597656 259.734375 722.375 258.828125 722.828125 C 259.28125 721.921875 259.375 720.878906 259.089844 719.910156 Z M 260.789062 720.648438 " transform="matrix(1,0,0,-1,-235,724)"/>
</g>
</svg>
